<svg xmlns="http://www.w3.org/2000/svg" width="30" height="30" viewBox="0 0 30 30" fill="none">
  <path d="M11.25 23.4375H3.75C2.55 23.4375 1.5625 22.45 1.5625 21.25V8.75C1.5625 7.55 2.55 6.5625 3.75 6.5625H10C12.5875 6.5625 14.6875 8.6625 14.6875 11.25C14.6875 12.5375 14.1625 13.7 13.325 14.55C14.875 15.3125 15.9375 16.9125 15.9375 18.75C15.9375 21.3375 13.8375 23.4375 11.25 23.4375ZM3.4375 15.9375V21.25C3.4375 21.425 3.575 21.5625 3.75 21.5625H11.25C12.8 21.5625 14.0625 20.3 14.0625 18.75C14.0625 17.2 12.8 15.9375 11.25 15.9375H3.4375ZM3.4375 14.0625H10C11.55 14.0625 12.8125 12.8 12.8125 11.25C12.8125 9.7 11.55 8.4375 10 8.4375H3.75C3.575 8.4375 3.4375 8.575 3.4375 8.75V14.0625Z" fill="white"/>
  <path d="M24.5875 23.4375H22.5C19.225 23.4375 16.5625 20.775 16.5625 17.5C16.5625 14.225 19.225 11.5625 22.5 11.5625C25.775 11.5625 28.4375 14.225 28.4375 17.5C28.4375 18.0125 28.0125 18.4375 27.5 18.4375H18.55C18.975 20.225 20.5875 21.5625 22.5 21.5625H24.5875C25.1 21.5625 25.525 21.9875 25.525 22.5C25.525 23.0125 25.1 23.4375 24.5875 23.4375ZM18.55 16.5625H26.4625C26.0375 14.775 24.425 13.4375 22.5125 13.4375C20.6 13.4375 18.975 14.775 18.55 16.5625Z" fill="white"/>
  <path d="M24.375 10.3125H20.625C20.1125 10.3125 19.6875 9.8875 19.6875 9.375C19.6875 8.8625 20.1125 8.4375 20.625 8.4375H24.375C24.8875 8.4375 25.3125 8.8625 25.3125 9.375C25.3125 9.8875 24.8875 10.3125 24.375 10.3125Z" fill="white"/>
</svg>