<svg xmlns="http://www.w3.org/2000/svg" width="30" height="30" viewBox="0 0 30 30" fill="none">
  <path d="M19.0999 17.553C18.8338 17.287 18.84 16.8601 19.0999 16.6002C19.3288 16.3713 19.5763 15.666 19.6072 14.8678C19.632 14.0882 19.4525 13.4386 19.106 13.0921C18.84 12.826 18.8462 12.3991 19.106 12.1393C19.3659 11.8794 19.799 11.8794 20.0589 12.1393C20.6776 12.758 20.9931 13.7417 20.9622 14.9111C20.9313 16.0062 20.5724 17.0457 20.0651 17.553C19.799 17.8191 19.3659 17.8191 19.0999 17.553Z" fill="#FB653C"/>
  <path d="M21.3334 19.7866C21.0674 19.5206 21.0736 19.0937 21.3334 18.8338C23.5299 16.6373 23.5237 13.0673 21.3334 10.8771C21.0674 10.611 21.0736 10.1841 21.3334 9.92425C21.5933 9.66439 22.0264 9.65201 22.2863 9.91188C25.0086 12.6342 25.0086 17.0643 22.2863 19.7866C22.0264 20.0465 21.5933 20.0465 21.3334 19.7866Z" fill="#FB653C"/>
  <path d="M12.4362 16.0867L10.147 16.0867C9.66438 16.0867 9.28078 15.7031 9.2684 15.2205C9.2684 15.0843 9.26222 14.9544 9.26222 14.8183C9.2684 13.5375 9.3674 12.2877 9.5592 11.0689C9.75719 9.85616 10.0542 8.74247 10.4563 7.74633C10.8709 6.7502 11.3968 5.9273 12.0403 5.28383C12.461 4.86311 12.9374 4.53519 13.4571 4.31245C13.983 4.08352 14.5646 3.97215 15.2019 3.99071C15.9877 3.9969 16.6126 4.2382 17.0704 4.69605C17.2437 4.86929 17.3798 5.07966 17.4602 5.30858C17.5469 5.5437 17.5778 5.79737 17.5283 6.06961L16.9405 9.52824C16.8972 9.79429 16.8353 10.017 16.7549 10.2088C16.6806 10.3944 16.5817 10.5553 16.4641 10.6729C16.3156 10.8214 16.1238 10.9265 15.8949 10.9822C15.6721 11.0441 15.4061 11.075 15.1091 11.075L14.1501 11.0936C14.014 11.0936 13.9026 11.1431 13.8036 11.2421C13.7541 11.2916 13.717 11.3411 13.6799 11.403C13.6489 11.471 13.6304 11.5267 13.6056 11.5762C13.5128 11.8917 13.4386 12.3496 13.3891 12.9436C13.3458 13.5437 13.3148 14.1686 13.3086 14.8183C13.3086 14.942 13.3148 15.072 13.3148 15.1957C13.321 15.6845 12.9312 16.0867 12.4362 16.0867Z" fill="#FB653C"/>
  <path d="M17.1014 24.9344C16.9281 25.1076 16.7178 25.2561 16.4826 25.3675C16.4146 25.3984 16.3465 25.4293 16.2723 25.4541C15.9444 25.5717 15.5979 25.6459 15.2205 25.6645C14.5832 25.6954 14.0078 25.6026 13.4757 25.3799C13.4695 25.3737 13.4571 25.3737 13.4509 25.3675C12.9374 25.1509 12.461 24.8354 12.0341 24.4085C11.403 23.7774 10.877 22.9545 10.4687 21.9398C10.0603 20.9251 9.75717 19.8052 9.56537 18.5863C9.50349 18.1656 9.44162 17.7449 9.4045 17.3241H13.4509C13.4942 17.6273 13.5499 17.881 13.6118 18.079C13.6303 18.1223 13.6489 18.178 13.6737 18.2398C13.7046 18.3079 13.7479 18.3636 13.8036 18.4193C13.9088 18.5245 14.0263 18.5678 14.1624 18.5678L15.0967 18.5739C15.4061 18.5739 15.6721 18.6049 15.8887 18.6729C16.1176 18.7286 16.3032 18.8276 16.4579 18.9823C16.5754 19.0999 16.6744 19.2484 16.7549 19.4402C16.8353 19.632 16.8972 19.8547 16.9467 20.1146L17.5406 23.6165C17.5901 23.8887 17.5716 24.13 17.485 24.3528C17.3922 24.5693 17.2746 24.7611 17.1014 24.9344Z" fill="#FB653C"/>
</svg>