<svg width="30" height="30" viewBox="0 0 30 30" fill="none" xmlns="http://www.w3.org/2000/svg">
<path d="M19.0998 17.553C18.8338 17.287 18.84 16.8601 19.0998 16.6002C19.3288 16.3713 19.5762 15.666 19.6072 14.8678C19.6319 14.0882 19.4525 13.4386 19.106 13.0921C18.84 12.826 18.8462 12.3991 19.106 12.1393C19.3659 11.8794 19.799 11.8794 20.0588 12.1393C20.6776 12.758 20.9931 13.7417 20.9622 14.9111C20.9312 16.0062 20.5724 17.0457 20.065 17.553C19.799 17.8191 19.3659 17.8191 19.0998 17.553Z" fill="white"/>
<path d="M21.3334 19.7866C21.0674 19.5206 21.0735 19.0937 21.3334 18.8338C23.5299 16.6373 23.5237 13.0673 21.3334 10.8771C21.0674 10.611 21.0735 10.1841 21.3334 9.92425C21.5933 9.66439 22.0264 9.65201 22.2862 9.91188C25.0086 12.6342 25.0086 17.0643 22.2862 19.7866C22.0264 20.0465 21.5933 20.0465 21.3334 19.7866Z" fill="white"/>
<path d="M12.4362 16.0867L10.147 16.0867C9.66438 16.0867 9.28078 15.7031 9.2684 15.2205C9.2684 15.0844 9.26222 14.9544 9.26222 14.8183C9.2684 13.5376 9.3674 12.2878 9.5592 11.0689C9.75719 9.85619 10.0542 8.7425 10.4563 7.74636C10.8709 6.75023 11.3968 5.92733 12.0403 5.28387C12.461 4.86314 12.9374 4.53522 13.4571 4.31248C13.983 4.08355 14.5646 3.97218 15.2019 3.99074C15.9877 3.99693 16.6126 4.23823 17.0704 4.69608C17.2437 4.86932 17.3798 5.07969 17.4602 5.30861C17.5469 5.54373 17.5778 5.7974 17.5283 6.06964L16.9405 9.52827C16.8972 9.79432 16.8353 10.0171 16.7549 10.2089C16.6806 10.3945 16.5817 10.5553 16.4641 10.6729C16.3156 10.8214 16.1238 10.9266 15.8949 10.9823C15.6721 11.0441 15.4061 11.0751 15.1091 11.0751L14.1501 11.0936C14.014 11.0936 13.9026 11.1431 13.8036 11.2421C13.7541 11.2916 13.717 11.3411 13.6799 11.403C13.6489 11.471 13.6304 11.5267 13.6056 11.5762C13.5128 11.8918 13.4386 12.3496 13.3891 12.9436C13.3458 13.5438 13.3148 14.1687 13.3086 14.8183C13.3086 14.9421 13.3148 15.072 13.3148 15.1957C13.321 15.6845 12.9312 16.0867 12.4362 16.0867Z" fill="white"/>
<path d="M17.1014 24.9343C16.9281 25.1076 16.7178 25.2561 16.4827 25.3674C16.4146 25.3984 16.3465 25.4293 16.2723 25.4541C15.9444 25.5716 15.5979 25.6459 15.2205 25.6644C14.5832 25.6954 14.0078 25.6026 13.4757 25.3798C13.4695 25.3736 13.4571 25.3736 13.4509 25.3674C12.9374 25.1509 12.461 24.8353 12.0341 24.4084C11.403 23.7773 10.8771 22.9544 10.4687 21.9397C10.0604 20.925 9.7572 19.8052 9.5654 18.5863C9.50352 18.1656 9.44165 17.7448 9.40453 17.3241H13.4509C13.4943 17.6273 13.5499 17.881 13.6118 18.0789C13.6304 18.1223 13.6489 18.1779 13.6737 18.2398C13.7046 18.3079 13.7479 18.3636 13.8036 18.4192C13.9088 18.5244 14.0264 18.5677 14.1625 18.5677L15.0967 18.5739C15.4061 18.5739 15.6721 18.6049 15.8887 18.6729C16.1176 18.7286 16.3032 18.8276 16.4579 18.9823C16.5755 19.0998 16.6745 19.2483 16.7549 19.4401C16.8353 19.6319 16.8972 19.8547 16.9467 20.1145L17.5407 23.6165C17.5902 23.8887 17.5716 24.13 17.485 24.3527C17.3922 24.5693 17.2746 24.7611 17.1014 24.9343Z" fill="white"/>
</svg>
