<svg xmlns="http://www.w3.org/2000/svg" width="21" height="21" viewBox="0 0 21 21" fill="none">
  <path d="M16.1613 14.7262L16.5025 17.4913C16.59 18.2175 15.8113 18.725 15.19 18.3487L12.1625 16.5462C11.9525 16.4237 11.9 16.1612 12.0138 15.9513C12.4513 15.1462 12.6875 14.2362 12.6875 13.3263C12.6875 10.1237 9.94003 7.51625 6.56253 7.51625C5.87128 7.51625 5.19753 7.62125 4.56753 7.83125C4.24378 7.93625 3.92878 7.63875 4.00753 7.30625C4.80378 4.12125 7.86628 1.75 11.5238 1.75C15.7938 1.75 19.25 4.97875 19.25 8.96C19.25 11.3225 18.0338 13.4137 16.1613 14.7262Z" fill="#FB653C"/>
  <path d="M11.375 13.3262C11.375 14.3675 10.99 15.33 10.3425 16.0912C9.47625 17.1412 8.1025 17.815 6.5625 17.815L4.27875 19.1712C3.89375 19.4075 3.40375 19.0837 3.45625 18.6375L3.675 16.9137C2.5025 16.1 1.75 14.7962 1.75 13.3262C1.75 11.7862 2.5725 10.43 3.8325 9.62499C4.61125 9.11749 5.5475 8.82874 6.5625 8.82874C9.2225 8.82874 11.375 10.8412 11.375 13.3262Z" fill="#FB653C"/>
</svg>