<svg width="74" height="74" viewBox="0 0 74 74" fill="none" xmlns="http://www.w3.org/2000/svg">
<circle cx="37" cy="37" r="37" fill="#1E1E22"/>
<path d="M51.3667 31.0837C49.6167 23.3837 42.9 19.917 37 19.917C37 19.917 37 19.917 36.9834 19.917C31.1 19.917 24.3667 23.367 22.6167 31.067C20.6667 39.667 25.9334 46.9503 30.7 51.5337C32.4667 53.2337 34.7334 54.0837 37 54.0837C39.2667 54.0837 41.5334 53.2337 43.2834 51.5337C48.05 46.9503 53.3167 39.6837 51.3667 31.0837ZM37 39.4337C34.1 39.4337 31.75 37.0837 31.75 34.1837C31.75 31.2837 34.1 28.9337 37 28.9337C39.9 28.9337 42.25 31.2837 42.25 34.1837C42.25 37.0837 39.9 39.4337 37 39.4337Z" fill="white"/>
</svg>
