<svg width="74" height="74" viewBox="0 0 74 74" fill="none" xmlns="http://www.w3.org/2000/svg">
<circle cx="37" cy="37" r="37" fill="#1E1E22"/>
<path d="M46.3667 34.9163C45.65 34.9163 45.0834 34.333 45.0834 33.633C45.0834 33.0163 44.4667 31.733 43.4334 30.6163C42.4167 29.533 41.3 28.8997 40.3667 28.8997C39.65 28.8997 39.0834 28.3163 39.0834 27.6163C39.0834 26.9163 39.6667 26.333 40.3667 26.333C42.0334 26.333 43.7834 27.233 45.3167 28.8497C46.75 30.3663 47.6667 32.2497 47.6667 33.6163C47.6667 34.333 47.0834 34.9163 46.3667 34.9163Z" fill="white"/>
<path d="M52.3833 34.9163C51.6666 34.9163 51.1 34.333 51.1 33.633C51.1 27.7163 46.2833 22.9163 40.3833 22.9163C39.6666 22.9163 39.1 22.333 39.1 21.633C39.1 20.933 39.6666 20.333 40.3666 20.333C47.7 20.333 53.6666 26.2997 53.6666 33.633C53.6666 34.333 53.0833 34.9163 52.3833 34.9163Z" fill="white"/>
<path d="M35.4167 41.9163L32.3334 44.9997C31.6834 45.6497 30.65 45.6497 29.9834 45.0163C29.8 44.833 29.6167 44.6663 29.4334 44.483C27.7167 42.7497 26.1667 40.933 24.7834 39.033C23.4167 37.133 22.3167 35.233 21.5167 33.3497C20.7334 31.4497 20.3334 29.633 20.3334 27.8997C20.3334 26.7663 20.5334 25.683 20.9334 24.683C21.3334 23.6663 21.9667 22.733 22.85 21.8997C23.9167 20.8497 25.0834 20.333 26.3167 20.333C26.7834 20.333 27.25 20.433 27.6667 20.633C28.1 20.833 28.4834 21.133 28.7834 21.5663L32.65 27.0163C32.95 27.433 33.1667 27.8163 33.3167 28.183C33.4667 28.533 33.55 28.883 33.55 29.1997C33.55 29.5997 33.4334 29.9997 33.2 30.383C32.9834 30.7663 32.6667 31.1663 32.2667 31.5663L31 32.883C30.8167 33.0663 30.7334 33.283 30.7334 33.5497C30.7334 33.683 30.75 33.7997 30.7834 33.933C30.8334 34.0663 30.8834 34.1663 30.9167 34.2663C31.2167 34.8163 31.7334 35.533 32.4667 36.3997C33.2167 37.2663 34.0167 38.1497 34.8834 39.033C35.05 39.1997 35.2334 39.3663 35.4 39.533C36.0667 40.183 36.0834 41.2497 35.4167 41.9163Z" fill="white"/>
<path d="M53.6167 47.5504C53.6167 48.0171 53.5333 48.5004 53.3667 48.9671C53.3167 49.1004 53.2667 49.2337 53.2 49.3671C52.9167 49.9671 52.55 50.5337 52.0667 51.0671C51.25 51.9671 50.35 52.6171 49.3333 53.0337C49.3167 53.0337 49.3 53.0504 49.2833 53.0504C48.3 53.4504 47.2333 53.6671 46.0833 53.6671C44.3833 53.6671 42.5667 53.2671 40.65 52.4504C38.7333 51.6337 36.8167 50.5337 34.9167 49.1504C34.2667 48.6671 33.6167 48.1837 33 47.6671L38.45 42.2171C38.9167 42.5671 39.3333 42.8337 39.6833 43.0171C39.7667 43.0504 39.8667 43.1004 39.9833 43.1504C40.1167 43.2004 40.25 43.2171 40.4 43.2171C40.6833 43.2171 40.9 43.1171 41.0833 42.9337L42.35 41.6837C42.7667 41.2671 43.1667 40.9504 43.55 40.7504C43.9333 40.5171 44.3167 40.4004 44.7333 40.4004C45.05 40.4004 45.3833 40.4671 45.75 40.6171C46.1167 40.7671 46.5 40.9837 46.9167 41.2671L52.4333 45.1837C52.8667 45.4837 53.1667 45.8337 53.35 46.2504C53.5167 46.6671 53.6167 47.0837 53.6167 47.5504Z" fill="white"/>
</svg>
