<svg width="74" height="74" viewBox="0 0 74 74" fill="none" xmlns="http://www.w3.org/2000/svg">
<circle cx="37" cy="37" r="37" fill="#1E1E22"/>
<path d="M49.5 30.3333C51.8012 30.3333 53.6667 28.4679 53.6667 26.1667C53.6667 23.8655 51.8012 22 49.5 22C47.1989 22 45.3334 23.8655 45.3334 26.1667C45.3334 28.4679 47.1989 30.3333 49.5 30.3333Z" fill="white"/>
<path d="M49.5 30.3333C51.8012 30.3333 53.6667 28.4679 53.6667 26.1667C53.6667 23.8655 51.8012 22 49.5 22C47.1989 22 45.3334 23.8655 45.3334 26.1667C45.3334 28.4679 47.1989 30.3333 49.5 30.3333Z" fill="white"/>
<path d="M51.5334 32.5163C50.3667 32.883 49.0834 32.9497 47.75 32.6163C45.5167 32.033 43.7 30.2497 43.0834 28.0163C42.7834 26.933 42.7667 25.8663 42.95 24.8997C43.1667 23.833 42.4167 22.833 41.35 22.833H28.6667C23.6667 22.833 20.3334 25.333 20.3334 31.1663V42.833C20.3334 48.6663 23.6667 51.1663 28.6667 51.1663H45.3334C50.3334 51.1663 53.6667 48.6663 53.6667 42.833V34.0997C53.6667 32.9997 52.6 32.1663 51.5334 32.5163ZM42.8667 35.583L40.9 37.1497C39.8 38.033 38.4 38.4663 37 38.4663C35.6 38.4663 34.1834 38.033 33.1 37.1497L27.8834 32.983C27.35 32.5497 27.2667 31.7497 27.6834 31.2163C28.1167 30.683 28.9 30.583 29.4334 31.0163L34.65 35.183C35.9167 36.1997 38.0667 36.1997 39.3334 35.183L41.3 33.6163C41.8334 33.183 42.6334 33.2663 43.05 33.8163C43.4834 34.3497 43.4 35.1497 42.8667 35.583Z" fill="white"/>
</svg>
