<svg xmlns="http://www.w3.org/2000/svg" width="243" height="243" viewBox="0 0 243 243" fill="none">
  <path d="M101.25 179.213H62.8764C24.4014 179.213 12.6564 167.468 12.6564 128.993V68.2427C12.6564 29.7677 24.4014 18.0227 62.8764 18.0227H169.493C207.968 18.0227 219.713 29.7677 219.713 68.2427C219.713 72.394 216.27 75.8365 212.119 75.8365C207.968 75.8365 204.525 72.394 204.525 68.2427C204.525 38.4752 199.26 33.2102 169.493 33.2102H62.8764C33.1089 33.2102 27.8439 38.4752 27.8439 68.2427V128.993C27.8439 158.76 33.1089 164.025 62.8764 164.025H101.25C105.401 164.025 108.844 167.468 108.844 171.619C108.844 175.77 105.401 179.213 101.25 179.213Z" fill="#fff
  " fill-opacity="0.08"/>
  <path d="M101.25 224.977C97.0986 224.977 93.6561 221.535 93.6561 217.383V171.517C93.6561 167.366 97.0986 163.923 101.25 163.923C105.401 163.923 108.844 167.366 108.844 171.517V217.383C108.844 221.636 105.401 224.977 101.25 224.977Z" fill="#fff
  " fill-opacity="0.08"/>
  <path d="M101.25 138.712H20.2501C16.0989 138.712 12.6564 135.27 12.6564 131.118C12.6564 126.967 16.0989 123.525 20.2501 123.525H101.25C105.401 123.525 108.844 126.967 108.844 131.118C108.844 135.27 105.401 138.712 101.25 138.712Z" fill="#fff
  " fill-opacity="0.08"/>
  <path d="M101.25 224.977H68.2423C64.0911 224.977 60.6486 221.535 60.6486 217.384C60.6486 213.232 64.0911 209.79 68.2423 209.79H101.25C105.401 209.79 108.844 213.232 108.844 217.384C108.844 221.535 105.401 224.977 101.25 224.977Z" fill="#fff
  " fill-opacity="0.08"/>
  <path d="M192.78 224.977H156.836C128.79 224.977 119.273 215.46 119.273 187.414V129.6C119.273 101.554 128.79 92.036 156.836 92.036H192.78C220.826 92.036 230.344 101.554 230.344 129.6V187.414C230.344 215.561 220.826 224.977 192.78 224.977ZM156.836 107.224C136.991 107.224 134.46 109.755 134.46 129.6V187.414C134.46 207.259 136.991 209.79 156.836 209.79H192.78C212.625 209.79 215.156 207.259 215.156 187.414V129.6C215.156 109.755 212.625 107.224 192.78 107.224H156.836Z" fill="#fff
  " fill-opacity="0.08"/>
  <path d="M175.162 192.072C172.53 192.072 169.897 191.059 167.973 189.135C167.062 188.224 166.353 187.11 165.847 185.895C165.341 184.579 165.037 183.263 165.037 181.947C165.037 179.314 166.151 176.682 167.973 174.859C170.302 172.53 173.846 171.417 177.187 172.024C177.795 172.227 178.402 172.429 179.01 172.632C179.617 172.935 180.225 173.239 180.731 173.543C181.338 173.948 181.845 174.353 182.351 174.859C184.173 176.682 185.287 179.314 185.287 181.947C185.287 183.263 184.983 184.579 184.477 185.895C183.971 187.11 183.262 188.224 182.351 189.135C181.845 189.642 181.338 190.047 180.731 190.35C180.225 190.755 179.617 191.059 179.01 191.363C178.402 191.565 177.795 191.768 177.187 191.869C176.478 192.072 175.871 192.072 175.162 192.072Z" fill="#fff
  " fill-opacity="0.08"/>
</svg>