<svg xmlns="http://www.w3.org/2000/svg" width="76" height="76" viewBox="0 0 76 76" fill="none">
  <path d="M31.6667 56.0501H19.665C7.63168 56.0501 3.95834 52.3767 3.95834 40.3434V21.3434C3.95834 9.31005 7.63168 5.63672 19.665 5.63672H53.01C65.0433 5.63672 68.7167 9.31005 68.7167 21.3434C68.7167 22.6417 67.64 23.7184 66.3417 23.7184C65.0433 23.7184 63.9667 22.6417 63.9667 21.3434C63.9667 12.0334 62.32 10.3867 53.01 10.3867H19.665C10.355 10.3867 8.70834 12.0334 8.70834 21.3434V40.3434C8.70834 49.6534 10.355 51.3001 19.665 51.3001H31.6667C32.965 51.3001 34.0417 52.3767 34.0417 53.6751C34.0417 54.9734 32.965 56.0501 31.6667 56.0501Z" fill="#fff"/>
  <path d="M31.6667 70.3632C30.3683 70.3632 29.2917 69.2865 29.2917 67.9882V53.6432C29.2917 52.3449 30.3683 51.2682 31.6667 51.2682C32.965 51.2682 34.0417 52.3449 34.0417 53.6432V67.9882C34.0417 69.3182 32.965 70.3632 31.6667 70.3632Z" fill="#fff"/>
  <path d="M31.6667 43.3832H6.33334C5.03501 43.3832 3.95834 42.3065 3.95834 41.0082C3.95834 39.7098 5.03501 38.6332 6.33334 38.6332H31.6667C32.965 38.6332 34.0417 39.7098 34.0417 41.0082C34.0417 42.3065 32.965 43.3832 31.6667 43.3832Z" fill="#fff"/>
  <path d="M31.6666 70.3633H21.3433C20.045 70.3633 18.9683 69.2866 18.9683 67.9883C18.9683 66.6899 20.045 65.6133 21.3433 65.6133H31.6666C32.965 65.6133 34.0416 66.6899 34.0416 67.9883C34.0416 69.2866 32.965 70.3633 31.6666 70.3633Z" fill="#fff"/>
  <path d="M60.2933 70.3632H49.0516C40.28 70.3632 37.3033 67.3866 37.3033 58.6149V40.5332C37.3033 31.7616 40.28 28.7849 49.0516 28.7849H60.2933C69.065 28.7849 72.0416 31.7616 72.0416 40.5332V58.6149C72.0416 67.4182 69.065 70.3632 60.2933 70.3632ZM49.0516 33.5349C42.845 33.5349 42.0533 34.3266 42.0533 40.5332V58.6149C42.0533 64.8216 42.845 65.6132 49.0516 65.6132H60.2933C66.5 65.6132 67.2916 64.8216 67.2916 58.6149V40.5332C67.2916 34.3266 66.5 33.5349 60.2933 33.5349H49.0516Z" fill="#fff"/>
  <path d="M54.7833 60.0718C53.96 60.0718 53.1366 59.7551 52.535 59.1535C52.25 58.8685 52.0283 58.5201 51.87 58.1401C51.7116 57.7285 51.6166 57.3168 51.6166 56.9051C51.6166 56.0818 51.965 55.2585 52.535 54.6885C53.2633 53.9601 54.3716 53.6118 55.4166 53.8018C55.6066 53.8651 55.7966 53.9285 55.9866 53.9918C56.1766 54.0868 56.3666 54.1818 56.525 54.2768C56.715 54.4035 56.8733 54.5301 57.0316 54.6885C57.6016 55.2585 57.95 56.0818 57.95 56.9051C57.95 57.3168 57.855 57.7285 57.6966 58.1401C57.5383 58.5201 57.3166 58.8685 57.0316 59.1535C56.8733 59.3118 56.715 59.4385 56.525 59.5335C56.3666 59.6601 56.1766 59.7551 55.9866 59.8501C55.7966 59.9135 55.6066 59.9768 55.4166 60.0085C55.195 60.0718 55.005 60.0718 54.7833 60.0718Z" fill="#fff"/>
</svg>