<svg xmlns="http://www.w3.org/2000/svg" width="243" height="243" viewBox="0 0 243 243" fill="none">
  <path d="M151.875 230.344H91.125C56.4975 230.344 43.0312 216.878 43.0312 182.25V60.75C43.0312 26.1225 56.4975 12.6562 91.125 12.6562H151.875C186.503 12.6562 199.969 26.1225 199.969 60.75V182.25C199.969 216.878 186.503 230.344 151.875 230.344ZM91.125 27.8438C65.0025 27.8438 58.2188 34.6275 58.2188 60.75V182.25C58.2188 208.373 65.0025 215.156 91.125 215.156H151.875C177.997 215.156 184.781 208.373 184.781 182.25V60.75C184.781 34.6275 177.997 27.8438 151.875 27.8438H91.125Z" fill="#fff" fill-opacity="0.08"/>
  <path d="M121.5 189.844C100.541 189.844 83.5312 172.834 83.5312 151.875C83.5312 130.916 100.541 113.906 121.5 113.906C142.459 113.906 159.469 130.916 159.469 151.875C159.469 172.834 142.459 189.844 121.5 189.844ZM121.5 129.094C108.945 129.094 98.7188 139.32 98.7188 151.875C98.7188 164.43 108.945 174.656 121.5 174.656C134.055 174.656 144.281 164.43 144.281 151.875C144.281 139.32 134.055 129.094 121.5 129.094Z" fill="#fff" fill-opacity="0.08"/>
  <path d="M121.5 98.7188C108.945 98.7188 98.7188 88.4925 98.7188 75.9375C98.7188 63.3825 108.945 53.1562 121.5 53.1562C134.055 53.1562 144.281 63.3825 144.281 75.9375C144.281 88.4925 134.055 98.7188 121.5 98.7188ZM121.5 68.3438C117.349 68.3438 113.906 71.7862 113.906 75.9375C113.906 80.0888 117.349 83.5312 121.5 83.5312C125.651 83.5312 129.094 80.0888 129.094 75.9375C129.094 71.7862 125.651 68.3438 121.5 68.3438Z" fill="#fff" fill-opacity="0.08"/>
</svg>