<svg xmlns="http://www.w3.org/2000/svg" width="76" height="76" viewBox="0 0 76 76" fill="none">
  <path d="M47.5 72.0417H28.5C17.67 72.0417 13.4583 67.83 13.4583 57V19C13.4583 8.17004 17.67 3.95837 28.5 3.95837H47.5C58.33 3.95837 62.5416 8.17004 62.5416 19V57C62.5416 67.83 58.33 72.0417 47.5 72.0417ZM28.5 8.70837C20.33 8.70837 18.2083 10.83 18.2083 19V57C18.2083 65.17 20.33 67.2917 28.5 67.2917H47.5C55.67 67.2917 57.7916 65.17 57.7916 57V19C57.7916 10.83 55.67 8.70837 47.5 8.70837H28.5Z" fill="#fff"/>
  <path d="M38 59.375C31.445 59.375 26.125 54.055 26.125 47.5C26.125 40.945 31.445 35.625 38 35.625C44.555 35.625 49.875 40.945 49.875 47.5C49.875 54.055 44.555 59.375 38 59.375ZM38 40.375C34.0733 40.375 30.875 43.5733 30.875 47.5C30.875 51.4267 34.0733 54.625 38 54.625C41.9267 54.625 45.125 51.4267 45.125 47.5C45.125 43.5733 41.9267 40.375 38 40.375Z" fill="#fff"/>
  <path d="M38 30.875C34.0733 30.875 30.875 27.6767 30.875 23.75C30.875 19.8233 34.0733 16.625 38 16.625C41.9267 16.625 45.125 19.8233 45.125 23.75C45.125 27.6767 41.9267 30.875 38 30.875ZM38 21.375C36.7017 21.375 35.625 22.4517 35.625 23.75C35.625 25.0483 36.7017 26.125 38 26.125C39.2983 26.125 40.375 25.0483 40.375 23.75C40.375 22.4517 39.2983 21.375 38 21.375Z" fill="#fff"/>
</svg>