<svg width="76" height="76" viewBox="0 0 76 76" fill="none" xmlns="http://www.w3.org/2000/svg">
<path d="M30.9701 57.7923C30.9701 57.1907 31.2234 56.5573 31.6667 56.114L49.6216 38.159C50.4133 37.3673 51.6166 37.2407 52.5666 37.8423L61.4334 43.4473C63.8718 44.9673 65.36 47.3423 65.6767 50.0657C66.025 53.074 64.79 56.2723 62.32 58.7423L52.25 68.8123C49.875 71.1873 46.7084 72.359 43.5417 72.0107C40.7867 71.694 38.4118 70.2373 36.9552 67.9573L31.3501 59.0907C31.0968 58.679 30.9701 58.2357 30.9701 57.7923ZM51.6167 42.8773L36.3533 58.1407L40.945 65.3923C41.61 66.469 42.7183 67.134 44.0483 67.2607C45.7266 67.4507 47.5317 66.754 48.8617 65.424L58.9317 55.354C60.3883 53.8973 61.1167 52.1557 60.9267 50.5723C60.8 49.3057 60.0718 48.229 58.8685 47.469L51.6167 42.8773Z" fill="#fff"/>
<path d="M3.95826 20.9953C3.95826 18.0186 5.00311 15.3903 6.96644 13.4269C9.24644 11.1469 12.4451 10.1336 15.9918 10.5452L42.2116 13.6486C43.51 13.8069 44.4282 14.9786 44.3016 16.2769C44.1432 17.5752 42.9715 18.5252 41.6732 18.3669L15.4533 15.2636C13.3949 15.0103 11.59 15.5486 10.355 16.7836C9.11999 18.0186 8.55002 19.8552 8.80336 21.9452L12.0651 49.5586C12.7618 55.4486 14.3449 56.7469 20.1082 56.1769L33.2499 55.4169C34.5483 55.3536 35.6884 56.3353 35.7517 57.6653C35.815 58.9636 34.8331 60.1036 33.5031 60.1669L20.4565 60.9269C12.2865 61.7503 8.32845 58.5202 7.31511 50.1286L4.05336 22.5152C3.99002 22.0086 3.95826 21.5019 3.95826 20.9953Z" fill="#fff"/>
<path d="M48.8933 39.8369C48.8933 39.7736 48.8933 39.7419 48.8933 39.6786L49.2416 34.1369C49.3366 32.8386 50.4449 31.8252 51.7749 31.9202C53.1049 32.0152 54.0866 33.1236 53.9916 34.4536L53.6433 39.9952C53.5483 41.2936 52.4401 42.3069 51.1101 42.2119C49.8751 42.1169 48.8933 41.0719 48.8933 39.8369Z" fill="#fff"/>
<path d="M7.82169 16.7207C7.82169 16.119 8.04326 15.5174 8.51826 15.0424C9.43659 14.1241 10.9568 14.1241 11.8751 15.0424L21.9453 25.1124C22.8636 26.0307 22.8636 27.5507 21.9453 28.4691C21.0269 29.3874 19.5068 29.3874 18.5884 28.4691L8.51826 18.399C8.04326 17.924 7.82169 17.3224 7.82169 16.7207Z" fill="#fff"/>
<path d="M38.7917 20.5834C38.7917 18.715 39.1084 16.91 39.6784 15.2317C40.9134 11.5584 43.4466 8.39169 46.8349 6.36502C49.4316 4.78169 52.4084 3.95837 55.4167 3.95837C60.5467 3.95837 65.2649 6.23836 68.3999 10.2284C70.7433 13.1417 72.0417 16.815 72.0417 20.5834C72.0417 29.7667 64.5684 37.2084 55.4167 37.2084C53.9284 37.2084 52.3768 36.9867 50.9518 36.575C49.4951 36.1634 48.1649 35.5934 46.8349 34.8017C45.3149 33.8834 44.0166 32.775 42.9083 31.4767C40.2483 28.5 38.7917 24.6367 38.7917 20.5834ZM67.2917 20.5834C67.2917 17.8917 66.3733 15.2634 64.695 13.1734C62.4467 10.3234 59.09 8.70837 55.4167 8.70837C53.295 8.70837 51.1734 9.31002 49.305 10.4184C46.8984 11.875 45.0618 14.1234 44.2068 16.7517C42.8451 20.5834 43.7 25.1751 46.5184 28.3734C47.31 29.2917 48.26 30.0834 49.305 30.7484C50.255 31.3184 51.205 31.73 52.25 32.015C53.295 32.3 54.3717 32.4584 55.4167 32.4584C61.9717 32.4584 67.2917 27.1384 67.2917 20.5834Z" fill="#fff"/>
<path d="M47.7215 20.6467C47.7215 19.3484 48.7982 18.2717 50.0965 18.2717L60.7365 18.2717C62.0348 18.2717 63.1115 19.3484 63.1115 20.6467C63.1115 21.9451 62.0348 23.0217 60.7364 23.0217L50.0965 23.0217C48.7665 23.0217 47.7215 21.9451 47.7215 20.6467Z" fill="#fff"/>
<path d="M53.0417 25.8393L53.0417 15.1993C53.0417 13.901 54.1184 12.8243 55.4167 12.8243C56.715 12.8243 57.7917 13.901 57.7917 15.1993L57.7917 25.8393C57.7917 27.1377 56.715 28.2143 55.4167 28.2143C54.1184 28.2143 53.0417 27.1693 53.0417 25.8393Z" fill="#fff"/>
</svg>
