<svg xmlns="http://www.w3.org/2000/svg" width="243" height="243" viewBox="0 0 243 243" fill="none">
  <path d="M99.0229 184.783C99.0229 182.86 99.8326 180.835 101.25 179.417L158.659 122.009C161.19 119.477 165.037 119.072 168.075 120.996L196.425 138.917C204.222 143.777 208.98 151.371 209.993 160.078C211.106 169.697 207.158 179.924 199.26 187.821L167.063 220.018C159.469 227.612 149.344 231.359 139.219 230.245C130.41 229.232 122.817 224.575 118.159 217.285L100.238 188.935C99.4279 187.619 99.0229 186.201 99.0229 184.783ZM165.038 137.095L116.235 185.897L130.916 209.083C133.043 212.526 136.586 214.652 140.839 215.057C146.205 215.665 151.976 213.437 156.229 209.185L188.426 176.987C193.084 172.33 195.413 166.761 194.805 161.699C194.4 157.649 192.072 154.206 188.224 151.776L165.038 137.095Z" fill="white" fill-opacity="0.08"/>
  <path d="M12.656 67.1296C12.656 57.6121 15.9968 49.2083 22.2743 42.9308C29.5643 35.6408 39.7915 32.4008 51.1315 33.717L134.966 43.6395C139.117 44.1457 142.053 47.892 141.648 52.0433C141.142 56.1945 137.396 59.232 133.244 58.7258L49.4098 48.8033C42.8286 47.9933 37.0575 49.7145 33.1087 53.6633C29.16 57.612 27.3376 63.4844 28.1476 70.1669L38.5766 158.457C40.8041 177.289 45.8658 181.441 64.2933 179.618L106.312 177.188C110.464 176.986 114.109 180.125 114.311 184.377C114.514 188.528 111.374 192.173 107.122 192.376L65.4069 194.806C39.2844 197.438 26.6291 187.111 23.3891 160.28L12.9601 71.9895C12.7576 70.3695 12.656 68.7496 12.656 67.1296Z" fill="white" fill-opacity="0.08"/>
  <path d="M156.33 127.373C156.33 127.171 156.33 127.069 156.33 126.867L157.444 109.148C157.747 104.997 161.291 101.757 165.544 102.061C169.796 102.365 172.935 105.908 172.631 110.161L171.518 127.88C171.214 132.031 167.67 135.271 163.418 134.967C159.469 134.663 156.33 131.322 156.33 127.373Z" fill="white" fill-opacity="0.08"/>
  <path d="M25.0088 53.4621C25.0088 51.5383 25.7172 49.6146 27.236 48.0959C30.1722 45.1596 35.0328 45.1596 37.9691 48.0959L70.1671 80.2933C73.1034 83.2295 73.1034 88.0897 70.1671 91.0259C67.2309 93.9622 62.3703 93.9622 59.434 91.0259L27.236 58.8283C25.7172 57.3096 25.0088 55.3858 25.0088 53.4621Z" fill="white" fill-opacity="0.08"/>
  <path d="M124.031 65.8125C124.031 59.8388 125.044 54.0675 126.867 48.7012C130.815 36.9562 138.915 26.8312 149.749 20.3512C158.051 15.2887 167.569 12.6562 177.188 12.6562C193.59 12.6562 208.676 19.9462 218.7 32.7037C226.192 42.0187 230.344 53.7638 230.344 65.8125C230.344 95.175 206.449 118.969 177.188 118.969C172.429 118.969 167.468 118.26 162.912 116.944C158.254 115.628 154.001 113.805 149.749 111.274C144.889 108.338 140.737 104.794 137.194 100.643C128.689 91.125 124.031 78.7725 124.031 65.8125ZM215.156 65.8125C215.156 57.2063 212.22 48.8025 206.854 42.12C199.665 33.0075 188.933 27.8437 177.188 27.8437C170.404 27.8437 163.62 29.7674 157.646 33.3112C149.951 37.9687 144.079 45.1574 141.345 53.5612C136.991 65.8124 139.725 80.4938 148.736 90.7201C151.268 93.6563 154.305 96.1876 157.646 98.3138C160.684 100.136 163.721 101.453 167.063 102.364C170.404 103.275 173.846 103.781 177.188 103.781C198.146 103.781 215.156 86.7713 215.156 65.8125Z" fill="white" fill-opacity="0.08"/>
  <path d="M152.583 66.0153C152.583 61.864 156.026 58.4215 160.177 58.4215L194.197 58.4215C198.348 58.4215 201.791 61.864 201.791 66.0153C201.791 70.1665 198.348 73.609 194.197 73.609L160.177 73.609C155.924 73.609 152.583 70.1665 152.583 66.0153Z" fill="white" fill-opacity="0.08"/>
  <path d="M169.594 82.618L169.594 48.598C169.594 44.4468 173.036 41.0043 177.188 41.0043C181.339 41.0043 184.781 44.4468 184.781 48.598L184.781 82.618C184.781 86.7693 181.339 90.2118 177.187 90.2118C173.036 90.2118 169.594 86.8705 169.594 82.618Z" fill="white" fill-opacity="0.08"/>
</svg>