<svg xmlns="http://www.w3.org/2000/svg" width="243" height="243" viewBox="0 0 243 243" fill="none">
  <path d="M134.357 235.406H108.842C101.754 235.406 95.3754 232.368 91.1229 227.204C87.3766 222.547 85.9591 216.573 87.2753 210.903L91.4266 192.578C92.2366 189.135 95.274 186.704 98.8178 186.704H144.38C147.924 186.704 150.962 189.135 151.772 192.578L155.923 210.903C157.239 216.978 156.024 222.851 152.278 227.508C148.127 232.47 141.647 235.406 134.357 235.406ZM104.893 201.69L102.058 214.144C101.754 215.663 102.362 216.877 102.969 217.586C104.285 219.206 106.412 220.117 108.842 220.117H134.357C136.989 220.117 139.217 219.308 140.432 217.789C141.242 216.776 141.444 215.561 141.14 214.043L138.305 201.589H104.893V201.69Z" fill="#fff" fill-opacity="0.08"/>
  <path d="M144.383 201.69C142.256 201.69 140.231 200.88 138.713 199.159C135.979 196.02 136.181 191.261 139.32 188.426L156.836 172.833C163.823 166.657 163.519 165.139 158.355 158.659L127.474 119.475C125.753 117.349 123.728 116.133 121.601 116.133C119.475 116.133 117.45 117.349 115.729 119.475L84.8477 158.659C79.3802 165.645 79.4814 167.164 86.1639 172.632L103.883 188.426C107.021 191.16 107.325 196.02 104.49 199.159C101.655 202.298 96.8964 202.601 93.7576 199.766L76.2414 184.173C63.4839 173.744 62.3701 162.607 72.9001 149.242L103.781 110.059C108.338 104.287 114.818 100.946 121.601 100.946C128.385 100.946 134.865 104.287 139.421 110.059L170.303 149.242C180.731 162.405 179.719 172.934 166.961 184.173L149.445 199.766C147.926 201.082 146.104 201.69 144.383 201.69Z" fill="#fff" fill-opacity="0.08"/>
  <path d="M121.599 145.8C117.448 145.8 114.005 142.358 114.005 138.207V112.59C114.005 108.439 117.448 104.996 121.599 104.996C125.75 104.996 129.193 108.439 129.193 112.59V138.207C129.193 142.459 125.75 145.8 121.599 145.8Z" fill="#fff" fill-opacity="0.08"/>
  <path d="M126.765 58.2188H116.64C106.92 58.2188 98.9214 50.22 98.9214 40.5V30.375C98.9214 20.655 106.92 12.6562 116.64 12.6562H126.765C136.485 12.6562 144.484 20.655 144.484 30.375V40.5C144.484 50.22 136.586 58.2188 126.765 58.2188ZM116.64 27.8438C115.223 27.8438 114.109 28.9575 114.109 30.375V40.5C114.109 41.9175 115.223 43.0312 116.64 43.0312H126.765C128.183 43.0312 129.296 41.9175 129.296 40.5V30.375C129.296 28.9575 128.183 27.8438 126.765 27.8438H116.64Z" fill="#fff" fill-opacity="0.08"/>
  <path d="M43.2339 151.065H33.1089C23.3889 151.065 15.3901 143.066 15.3901 133.346V123.221C15.3901 113.501 23.3889 105.502 33.1089 105.502H43.2339C52.9539 105.502 60.9526 113.501 60.9526 123.221V133.346C60.9526 143.066 52.9539 151.065 43.2339 151.065ZM33.1089 120.689C31.6914 120.689 30.5776 121.804 30.5776 123.221V133.346C30.5776 134.764 31.6914 135.877 33.1089 135.877H43.2339C44.6514 135.877 45.7651 134.764 45.7651 133.346V123.221C45.7651 121.804 44.6514 120.689 43.2339 120.689H33.1089Z" fill="#fff" fill-opacity="0.08"/>
  <path d="M209.891 151.065H199.766C190.046 151.065 182.047 143.066 182.047 133.346V123.221C182.047 113.501 190.046 105.502 199.766 105.502H209.891C219.611 105.502 227.61 113.501 227.61 123.221V133.346C227.61 143.066 219.712 151.065 209.891 151.065ZM199.766 120.689C198.349 120.689 197.235 121.804 197.235 123.221V133.346C197.235 134.764 198.349 135.877 199.766 135.877H209.891C211.309 135.877 212.422 134.764 212.422 133.346V123.221C212.422 121.804 211.309 120.689 209.891 120.689H199.766Z" fill="#fff" fill-opacity="0.08"/>
  <path d="M37.9688 120.691C33.8175 120.691 30.375 117.248 30.375 113.097C30.375 69.8632 62.775 33.5146 105.705 28.4521C109.856 28.0471 113.603 30.9831 114.109 35.1343C114.615 39.2856 111.578 43.032 107.426 43.5383C72.1913 47.6895 45.5625 77.5582 45.5625 113.097C45.5625 117.248 42.12 120.691 37.9688 120.691Z" fill="#fff" fill-opacity="0.08"/>
  <path d="M205.031 120.69C200.88 120.69 197.438 117.248 197.438 113.096C197.438 77.76 171.011 47.8914 135.979 43.6389C131.828 43.1327 128.891 39.3863 129.398 35.235C129.904 31.0838 133.65 28.0466 137.903 28.6541C180.529 33.8179 212.726 70.1664 212.726 113.198C212.625 117.248 209.284 120.69 205.031 120.69Z" fill="#fff" fill-opacity="0.08"/>
</svg>