<svg xmlns="http://www.w3.org/2000/svg" width="76" height="76" viewBox="0 0 76 76" fill="none">
  <path d="M42.021 73.625H34.041C31.8243 73.625 29.8293 72.6749 28.4993 71.0599C27.3277 69.6032 26.8843 67.7349 27.296 65.9616L28.5943 60.2301C28.8477 59.1534 29.7976 58.3932 30.906 58.3932H45.156C46.2643 58.3932 47.2143 59.1534 47.4677 60.2301L48.766 65.9616C49.1776 67.8616 48.7976 69.6983 47.626 71.1549C46.3276 72.7066 44.301 73.625 42.021 73.625ZM32.806 63.0802L31.9193 66.9751C31.8243 67.4501 32.0143 67.83 32.2043 68.0517C32.616 68.5583 33.281 68.8433 34.041 68.8433H42.021C42.8443 68.8433 43.541 68.5901 43.921 68.1151C44.1743 67.7984 44.2377 67.4184 44.1427 66.9434L43.256 63.0485H32.806V63.0802Z" fill="#fff"/>
  <path d="M45.1567 63.0801C44.4917 63.0801 43.8584 62.8268 43.3834 62.2884C42.5284 61.3068 42.5917 59.8182 43.5734 58.9316L49.0518 54.0548C51.2368 52.1231 51.1417 51.6484 49.5267 49.6218L39.8684 37.3666C39.3301 36.7016 38.6967 36.3215 38.0317 36.3215C37.3667 36.3215 36.7334 36.7016 36.1951 37.3666L26.5368 49.6218C24.8268 51.8068 24.8584 52.2818 26.9484 53.9918L32.4901 58.9316C33.4717 59.7866 33.5668 61.3068 32.6801 62.2884C31.7934 63.2701 30.3051 63.3649 29.3234 62.4782L23.8451 57.6014C19.8551 54.3398 19.5067 50.8566 22.8001 46.6766L32.4584 34.4216C33.8834 32.6166 35.9101 31.5715 38.0317 31.5715C40.1534 31.5715 42.1801 32.6166 43.6051 34.4216L53.2634 46.6766C56.5251 50.7933 56.2084 54.0864 52.2184 57.6014L46.7401 62.4782C46.2651 62.8899 45.6951 63.0801 45.1567 63.0801Z" fill="#fff"/>
  <path d="M38.0309 45.6001C36.7326 45.6001 35.6559 44.5235 35.6559 43.2251V35.2134C35.6559 33.915 36.7326 32.8384 38.0309 32.8384C39.3293 32.8384 40.4059 33.915 40.4059 35.2134V43.2251C40.4059 44.5551 39.3293 45.6001 38.0309 45.6001Z" fill="#fff"/>
  <path d="M39.6467 18.2084H36.4801C33.4401 18.2084 30.9384 15.7067 30.9384 12.6667V9.50004C30.9384 6.46004 33.4401 3.95837 36.4801 3.95837H39.6467C42.6867 3.95837 45.1884 6.46004 45.1884 9.50004V12.6667C45.1884 15.7067 42.7184 18.2084 39.6467 18.2084ZM36.4801 8.70837C36.0367 8.70837 35.6884 9.05671 35.6884 9.50004V12.6667C35.6884 13.11 36.0367 13.4584 36.4801 13.4584H39.6467C40.0901 13.4584 40.4384 13.11 40.4384 12.6667V9.50004C40.4384 9.05671 40.0901 8.70837 39.6467 8.70837H36.4801Z" fill="#fff"/>
  <path d="M13.5217 47.2467H10.3551C7.31507 47.2467 4.8134 44.745 4.8134 41.705V38.5383C4.8134 35.4983 7.31507 32.9965 10.3551 32.9965H13.5217C16.5617 32.9965 19.0634 35.4983 19.0634 38.5383V41.705C19.0634 44.745 16.5617 47.2467 13.5217 47.2467ZM10.3551 37.7465C9.91173 37.7465 9.5634 38.095 9.5634 38.5383V41.705C9.5634 42.1483 9.91173 42.4967 10.3551 42.4967H13.5217C13.9651 42.4967 14.3134 42.1483 14.3134 41.705V38.5383C14.3134 38.095 13.9651 37.7465 13.5217 37.7465H10.3551Z" fill="#fff"/>
  <path d="M65.6449 47.2467H62.4783C59.4383 47.2467 56.9366 44.745 56.9366 41.705V38.5383C56.9366 35.4983 59.4383 32.9965 62.4783 32.9965H65.6449C68.6849 32.9965 71.1866 35.4983 71.1866 38.5383V41.705C71.1866 44.745 68.7166 47.2467 65.6449 47.2467ZM62.4783 37.7465C62.0349 37.7465 61.6866 38.095 61.6866 38.5383V41.705C61.6866 42.1483 62.0349 42.4967 62.4783 42.4967H65.6449C66.0883 42.4967 66.4366 42.1483 66.4366 41.705V38.5383C66.4366 38.095 66.0883 37.7465 65.6449 37.7465H62.4783Z" fill="#fff"/>
  <path d="M11.875 37.7469C10.5767 37.7469 9.5 36.6703 9.5 35.3719C9.5 21.8503 19.6333 10.482 33.06 8.89863C34.3583 8.77196 35.53 9.69021 35.6883 10.9885C35.8467 12.2869 34.8967 13.4586 33.5983 13.6169C22.5783 14.9153 14.25 24.2569 14.25 35.3719C14.25 36.6703 13.1733 37.7469 11.875 37.7469Z" fill="#fff"/>
  <path d="M64.1251 37.7466C62.8267 37.7466 61.7501 36.67 61.7501 35.3716C61.7501 24.32 53.485 14.9783 42.5284 13.6483C41.23 13.49 40.3117 12.3183 40.4701 11.0199C40.6284 9.72162 41.8001 8.77173 43.1301 8.96173C56.4617 10.5767 66.5317 21.945 66.5317 35.4033C66.5001 36.67 65.4551 37.7466 64.1251 37.7466Z" fill="#fff"/>
</svg>