<svg xmlns="http://www.w3.org/2000/svg" width="243" height="243" viewBox="0 0 243 243" fill="none">
  <path d="M97.2 210.094C52.7513 210.094 32.9062 190.249 32.9062 145.8V97.2C32.9062 52.7513 52.7513 32.9062 97.2 32.9062H145.8C190.249 32.9062 210.094 52.7513 210.094 97.2C210.094 101.351 206.651 104.794 202.5 104.794C198.349 104.794 194.906 101.351 194.906 97.2C194.906 60.9525 182.048 48.0938 145.8 48.0938H97.2C60.9525 48.0938 48.0938 60.9525 48.0938 97.2V145.8C48.0938 182.048 60.9525 194.906 97.2 194.906C101.351 194.906 104.794 198.349 104.794 202.5C104.794 206.651 101.351 210.094 97.2 210.094Z" fill="#fff" fill-opacity="0.08"/>
  <path d="M80.8987 173.137C79.2787 173.137 77.5574 172.631 76.1399 171.517C67.3312 164.531 63.1799 153.394 63.1799 136.687V106.312C63.1799 76.95 76.8487 63.2812 106.211 63.2812H136.586C153.292 63.2812 164.329 67.4325 171.416 76.2413C174.049 79.4813 173.441 84.3412 170.201 86.8725C166.961 89.505 162.101 88.9987 159.57 85.6575C157.14 82.5187 152.077 78.4687 136.687 78.4687H106.312C85.2524 78.4687 78.4687 85.2525 78.4687 106.312V136.687C78.4687 152.077 82.6199 157.14 85.6574 159.57C88.8974 162.202 89.5049 166.961 86.8724 170.201C85.3537 172.125 83.1262 173.137 80.8987 173.137Z" fill="#fff" fill-opacity="0.08"/>
  <path d="M81.1013 48.0938C76.8488 48.0938 73.5076 44.6513 73.5076 40.5V20.25C73.5076 16.0988 76.9501 12.6562 81.1013 12.6562C85.2526 12.6562 88.6951 16.0988 88.6951 20.25V40.5C88.6951 44.6513 85.2526 48.0938 81.1013 48.0938Z" fill="#fff" fill-opacity="0.08"/>
  <path d="M121.5 48.0938C117.349 48.0938 113.906 44.6513 113.906 40.5V20.25C113.906 16.0988 117.349 12.6562 121.5 12.6562C125.651 12.6562 129.094 16.0988 129.094 20.25V40.5C129.094 44.6513 125.651 48.0938 121.5 48.0938Z" fill="#fff" fill-opacity="0.08"/>
  <path d="M162 48.0938C157.849 48.0938 154.406 44.6513 154.406 40.5V20.25C154.406 16.0988 157.849 12.6562 162 12.6562C166.151 12.6562 169.594 16.0988 169.594 20.25V40.5C169.594 44.6513 166.151 48.0938 162 48.0938Z" fill="#fff" fill-opacity="0.08"/>
  <path d="M222.75 88.5938H202.5C198.349 88.5938 194.906 85.1512 194.906 81C194.906 76.8488 198.349 73.4062 202.5 73.4062H222.75C226.901 73.4062 230.344 76.8488 230.344 81C230.344 85.1512 227.002 88.5938 222.75 88.5938Z" fill="#fff" fill-opacity="0.08"/>
  <path d="M81.1013 230.344C76.9501 230.344 73.5076 226.901 73.5076 222.75V202.5C73.5076 198.349 76.9501 194.906 81.1013 194.906C85.2526 194.906 88.6951 198.349 88.6951 202.5V222.75C88.6951 226.901 85.2526 230.344 81.1013 230.344Z" fill="#fff" fill-opacity="0.08"/>
  <path d="M40.5 88.5938H20.25C16.0988 88.5938 12.6562 85.2525 12.6562 81C12.6562 76.7475 16.0988 73.4062 20.25 73.4062H40.5C44.6513 73.4062 48.0938 76.8488 48.0938 81C48.0938 85.1512 44.7525 88.5938 40.5 88.5938Z" fill="#fff" fill-opacity="0.08"/>
  <path d="M40.5 129.094H20.25C16.0988 129.094 12.6562 125.651 12.6562 121.5C12.6562 117.349 16.0988 113.906 20.25 113.906H40.5C44.6513 113.906 48.0938 117.349 48.0938 121.5C48.0938 125.651 44.7525 129.094 40.5 129.094Z" fill="#fff" fill-opacity="0.08"/>
  <path d="M40.5 169.594H20.25C16.0988 169.594 12.6562 166.151 12.6562 162C12.6562 157.849 16.0988 154.406 20.25 154.406H40.5C44.6513 154.406 48.0938 157.849 48.0938 162C48.0938 166.151 44.7525 169.594 40.5 169.594Z" fill="#fff" fill-opacity="0.08"/>
  <path d="M169.189 195.818C156.128 195.818 145.496 185.186 145.496 172.125C145.496 159.064 156.128 148.432 169.189 148.432C182.25 148.432 192.881 159.064 192.881 172.125C192.78 185.186 182.25 195.818 169.189 195.818ZM169.189 163.62C164.531 163.62 160.684 167.467 160.684 172.125C160.684 176.782 164.531 180.63 169.189 180.63C173.846 180.63 177.694 176.782 177.694 172.125C177.593 167.467 173.846 163.62 169.189 163.62Z" fill="#fff" fill-opacity="0.08"/>
  <path d="M186.3 230.344C180.63 230.344 175.061 227.407 172.024 222.142L171.315 221.029C170.201 219.105 169.29 218.599 169.088 218.497C168.986 218.497 167.974 219.105 166.86 221.029L166.253 222.041C161.595 230.04 151.369 232.672 143.573 228.015L134.46 222.75C130.309 220.421 127.373 216.574 126.158 211.916C124.943 207.36 125.55 202.5 127.879 198.45C128.993 196.526 128.993 195.412 128.891 195.21C128.79 195.109 127.879 194.602 125.651 194.602C115.83 194.602 107.831 186.604 107.831 176.884V167.467C107.831 157.646 115.83 149.749 125.55 149.749C127.778 149.749 128.689 149.141 128.891 149.04C128.891 148.939 128.891 147.825 127.778 145.901C125.449 141.75 124.74 136.991 126.056 132.435C127.271 127.879 130.208 124.031 134.359 121.601L143.573 116.235C151.268 111.679 161.494 114.311 166.05 122.209L166.658 123.322C167.771 125.246 168.683 125.752 168.885 125.854C168.986 125.854 169.999 125.246 171.113 123.322L171.72 122.31C176.479 114.311 186.604 111.679 194.4 116.336L203.816 121.5C207.968 123.829 210.904 127.676 212.119 132.334C213.334 136.89 212.726 141.75 210.398 145.8C209.284 147.724 209.284 148.837 209.385 149.04C209.486 149.141 210.398 149.647 212.625 149.647C222.446 149.647 230.445 157.646 230.445 167.366V176.782C230.445 186.604 222.446 194.501 212.726 194.501C210.499 194.501 209.588 195.109 209.385 195.21C209.385 195.311 209.385 196.425 210.499 198.349C212.828 202.5 213.536 207.259 212.22 211.815C211.005 216.371 208.069 220.219 203.918 222.649L194.704 228.015C191.97 229.534 189.135 230.344 186.3 230.344ZM169.189 203.31C175.264 203.31 180.833 206.955 184.579 213.435L185.186 214.549C185.49 215.055 186.3 215.359 186.908 214.954L196.223 209.587C197.033 209.182 197.336 208.372 197.438 207.967C197.539 207.562 197.64 206.854 197.235 206.044C193.489 199.665 193.185 192.982 196.223 187.717C199.26 182.452 205.234 179.415 212.625 179.415C214.043 179.415 215.258 178.2 215.258 176.884V167.467C215.258 166.05 214.043 164.936 212.726 164.936C205.335 164.936 199.26 161.899 196.324 156.634C193.286 151.369 193.691 144.686 197.336 138.307C197.843 137.497 197.741 136.687 197.539 136.384C197.438 135.979 197.134 135.27 196.324 134.764L187.11 129.397C186.401 128.992 185.591 129.296 185.186 129.904L184.68 130.815C180.934 137.295 175.365 140.94 169.29 140.94C163.215 140.94 157.646 137.295 153.9 130.815L153.293 129.802C152.989 129.195 152.078 128.992 151.571 129.296L142.256 134.662C141.446 135.067 141.143 135.877 141.041 136.282C140.94 136.687 140.839 137.396 141.244 138.206C144.99 144.585 145.294 151.267 142.256 156.532C139.219 161.797 133.245 164.835 125.854 164.835C124.436 164.835 123.221 166.05 123.221 167.366V176.782C123.221 178.2 124.436 179.314 125.753 179.314C133.144 179.314 139.219 182.351 142.155 187.616C145.193 192.881 144.788 199.564 141.143 205.942C140.738 206.752 140.839 207.461 140.94 207.866C141.041 208.271 141.345 208.98 142.155 209.486L151.369 214.852C152.078 215.257 152.888 214.954 153.293 214.346L153.799 213.334C157.444 206.955 163.114 203.31 169.189 203.31Z" fill="#fff" fill-opacity="0.08"/>
</svg>