<svg xmlns="http://www.w3.org/2000/svg" width="76" height="76" viewBox="0 0 76 76" fill="none">
  <path d="M30.4 65.7083C16.4983 65.7083 10.2917 59.5016 10.2917 45.6V30.4C10.2917 16.4983 16.4983 10.2916 30.4 10.2916H45.6C59.5017 10.2916 65.7083 16.4983 65.7083 30.4C65.7083 31.6983 64.6317 32.775 63.3333 32.775C62.035 32.775 60.9583 31.6983 60.9583 30.4C60.9583 19.0633 56.9367 15.0416 45.6 15.0416H30.4C19.0633 15.0416 15.0417 19.0633 15.0417 30.4V45.6C15.0417 56.9366 19.0633 60.9583 30.4 60.9583C31.6983 60.9583 32.775 62.035 32.775 63.3333C32.775 64.6316 31.6983 65.7083 30.4 65.7083Z" fill="#fff"/>
  <path d="M25.3017 54.15C24.795 54.15 24.2567 53.9916 23.8133 53.6433C21.0583 51.4583 19.76 47.975 19.76 42.75V33.25C19.76 24.0666 24.035 19.7916 33.2183 19.7916H42.7183C47.9433 19.7916 51.395 21.09 53.6117 23.845C54.435 24.8583 54.245 26.3783 53.2317 27.17C52.2183 27.9933 50.6983 27.835 49.9067 26.79C49.1467 25.8083 47.5633 24.5416 42.75 24.5416H33.25C26.6633 24.5416 24.5417 26.6633 24.5417 33.25V42.75C24.5417 47.5633 25.84 49.1466 26.79 49.9066C27.8033 50.73 27.9933 52.2183 27.17 53.2316C26.695 53.8333 25.9983 54.15 25.3017 54.15Z" fill="#fff"/>
  <path d="M25.365 15.0417C24.035 15.0417 22.99 13.965 22.99 12.6667V6.33337C22.99 5.03504 24.0667 3.95837 25.365 3.95837C26.6633 3.95837 27.74 5.03504 27.74 6.33337V12.6667C27.74 13.965 26.6633 15.0417 25.365 15.0417Z" fill="#fff"/>
  <path d="M38 15.0417C36.7017 15.0417 35.625 13.965 35.625 12.6667V6.33337C35.625 5.03504 36.7017 3.95837 38 3.95837C39.2983 3.95837 40.375 5.03504 40.375 6.33337V12.6667C40.375 13.965 39.2983 15.0417 38 15.0417Z" fill="#fff"/>
  <path d="M50.6667 15.0417C49.3683 15.0417 48.2917 13.965 48.2917 12.6667V6.33337C48.2917 5.03504 49.3683 3.95837 50.6667 3.95837C51.965 3.95837 53.0417 5.03504 53.0417 6.33337V12.6667C53.0417 13.965 51.965 15.0417 50.6667 15.0417Z" fill="#fff"/>
  <path d="M69.6667 27.7084H63.3333C62.035 27.7084 60.9583 26.6317 60.9583 25.3334C60.9583 24.035 62.035 22.9584 63.3333 22.9584H69.6667C70.965 22.9584 72.0417 24.035 72.0417 25.3334C72.0417 26.6317 70.9967 27.7084 69.6667 27.7084Z" fill="#fff"/>
  <path d="M25.365 72.0417C24.0667 72.0417 22.99 70.965 22.99 69.6667V63.3334C22.99 62.035 24.0667 60.9584 25.365 60.9584C26.6633 60.9584 27.74 62.035 27.74 63.3334V69.6667C27.74 70.965 26.6633 72.0417 25.365 72.0417Z" fill="#fff"/>
  <path d="M12.6667 27.7084H6.33333C5.03499 27.7084 3.95833 26.6634 3.95833 25.3334C3.95833 24.0034 5.03499 22.9584 6.33333 22.9584H12.6667C13.965 22.9584 15.0417 24.035 15.0417 25.3334C15.0417 26.6317 13.9967 27.7084 12.6667 27.7084Z" fill="#fff"/>
  <path d="M12.6667 40.375H6.33333C5.03499 40.375 3.95833 39.2983 3.95833 38C3.95833 36.7017 5.03499 35.625 6.33333 35.625H12.6667C13.965 35.625 15.0417 36.7017 15.0417 38C15.0417 39.2983 13.9967 40.375 12.6667 40.375Z" fill="#fff"/>
  <path d="M12.6667 53.0416H6.33333C5.03499 53.0416 3.95833 51.965 3.95833 50.6666C3.95833 49.3683 5.03499 48.2916 6.33333 48.2916H12.6667C13.965 48.2916 15.0417 49.3683 15.0417 50.6666C15.0417 51.965 13.9967 53.0416 12.6667 53.0416Z" fill="#fff"/>
  <path d="M52.915 61.2433C48.83 61.2433 45.505 57.9183 45.505 53.8333C45.505 49.7483 48.83 46.4233 52.915 46.4233C57 46.4233 60.325 49.7483 60.325 53.8333C60.2933 57.9183 57 61.2433 52.915 61.2433ZM52.915 51.1733C51.4583 51.1733 50.255 52.3767 50.255 53.8333C50.255 55.29 51.4583 56.4933 52.915 56.4933C54.3717 56.4933 55.575 55.29 55.575 53.8333C55.5433 52.3767 54.3717 51.1733 52.915 51.1733Z" fill="#fff"/>
  <path d="M58.2667 72.0417C56.4933 72.0417 54.7517 71.1234 53.8017 69.4767L53.58 69.1284C53.2317 68.5267 52.9467 68.3684 52.8833 68.3367C52.8517 68.3367 52.535 68.5267 52.1867 69.1284L51.9967 69.445C50.54 71.9467 47.3417 72.77 44.9033 71.3134L42.0533 69.6667C40.755 68.9384 39.8367 67.735 39.4567 66.2784C39.0767 64.8534 39.2667 63.3334 39.995 62.0667C40.3433 61.465 40.3433 61.1167 40.3117 61.0534C40.28 61.0217 39.995 60.8634 39.2983 60.8634C36.2267 60.8634 33.725 58.3617 33.725 55.3217V52.3767C33.725 49.305 36.2267 46.835 39.2667 46.835C39.9633 46.835 40.2483 46.645 40.3117 46.6134C40.3117 46.5817 40.3117 46.2334 39.9633 45.6317C39.235 44.3334 39.0133 42.845 39.425 41.42C39.805 39.995 40.7233 38.7917 42.0217 38.0317L44.9033 36.3534C47.31 34.9284 50.5083 35.7517 51.9333 38.2217L52.1233 38.57C52.4717 39.1717 52.7567 39.33 52.82 39.3617C52.8517 39.3617 53.1683 39.1717 53.5167 38.57L53.7067 38.2534C55.195 35.7517 58.3617 34.9284 60.8 36.385L63.745 38C65.0433 38.7284 65.9617 39.9317 66.3417 41.3884C66.7217 42.8134 66.5317 44.3334 65.8033 45.6C65.455 46.2017 65.455 46.55 65.4867 46.6134C65.5183 46.645 65.8033 46.8034 66.5 46.8034C69.5717 46.8034 72.0733 49.305 72.0733 52.345V55.29C72.0733 58.3617 69.5717 60.8317 66.5317 60.8317C65.835 60.8317 65.55 61.0217 65.4867 61.0534C65.4867 61.085 65.4867 61.4334 65.835 62.035C66.5633 63.3334 66.785 64.8217 66.3733 66.2467C65.9933 67.6717 65.075 68.875 63.7767 69.635L60.895 71.3134C60.04 71.7884 59.1533 72.0417 58.2667 72.0417ZM52.915 63.5867C54.815 63.5867 56.5567 64.7267 57.7283 66.7534L57.9183 67.1017C58.0133 67.26 58.2667 67.355 58.4567 67.2284L61.37 65.55C61.6233 65.4234 61.7183 65.17 61.75 65.0434C61.7817 64.9167 61.8133 64.695 61.6867 64.4417C60.515 62.4467 60.42 60.3567 61.37 58.71C62.32 57.0634 64.1883 56.1134 66.5 56.1134C66.9433 56.1134 67.3233 55.7334 67.3233 55.3217V52.3767C67.3233 51.9334 66.9433 51.585 66.5317 51.585C64.22 51.585 62.32 50.635 61.4017 48.9884C60.4517 47.3417 60.5783 45.2517 61.7183 43.2567C61.8767 43.0034 61.845 42.75 61.7817 42.655C61.75 42.5284 61.655 42.3067 61.4017 42.1484L58.52 40.47C58.2983 40.3434 58.045 40.4384 57.9183 40.6284L57.76 40.9134C56.5883 42.94 54.8467 44.08 52.9467 44.08C51.0467 44.08 49.305 42.94 48.1333 40.9134L47.9433 40.5967C47.8483 40.4067 47.5633 40.3434 47.405 40.4384L44.4917 42.1167C44.2383 42.2434 44.1433 42.4967 44.1117 42.6234C44.08 42.75 44.0483 42.9717 44.175 43.225C45.3467 45.22 45.4417 47.31 44.4917 48.9567C43.5417 50.6034 41.6733 51.5534 39.3617 51.5534C38.9183 51.5534 38.5383 51.9334 38.5383 52.345V55.29C38.5383 55.7334 38.9183 56.0817 39.33 56.0817C41.6417 56.0817 43.5417 57.0317 44.46 58.6784C45.41 60.325 45.2833 62.415 44.1433 64.41C44.0167 64.6634 44.0483 64.885 44.08 65.0117C44.1117 65.1384 44.2067 65.36 44.46 65.5184L47.3417 67.1967C47.5633 67.3234 47.8167 67.2284 47.9433 67.0384L48.1017 66.7217C49.2417 64.7267 51.015 63.5867 52.915 63.5867Z" fill="#fff"/>
</svg>