<svg xmlns="http://www.w3.org/2000/svg" width="76" height="76" viewBox="0 0 76 76" fill="none">
  <path d="M47.5 72.0417H28.5C11.305 72.0417 3.95834 64.695 3.95834 47.5V28.5C3.95834 11.305 11.305 3.95837 28.5 3.95837H47.5C64.695 3.95837 72.0417 11.305 72.0417 28.5V47.5C72.0417 64.695 64.695 72.0417 47.5 72.0417ZM28.5 8.70837C13.9017 8.70837 8.70834 13.9017 8.70834 28.5V47.5C8.70834 62.0984 13.9017 67.2917 28.5 67.2917H47.5C62.0983 67.2917 67.2917 62.0984 67.2917 47.5V28.5C67.2917 13.9017 62.0983 8.70837 47.5 8.70837H28.5Z" fill="#fff"/>
  <path d="M21.8183 70.395C20.52 70.395 19.4433 69.3183 19.4433 68.02V7.97998C19.4433 6.68165 20.52 5.60498 21.8183 5.60498C23.1167 5.60498 24.1933 6.64998 24.1933 7.97998V68.02C24.1933 69.35 23.1167 70.395 21.8183 70.395Z" fill="#fff"/>
  <path d="M53.485 70.395C52.1867 70.395 51.11 69.3183 51.11 68.02V7.97998C51.11 6.68165 52.1867 5.60498 53.485 5.60498C54.7833 5.60498 55.86 6.68165 55.86 7.97998V68.02C55.86 69.35 54.7833 70.395 53.485 70.395Z" fill="#fff"/>
  <path d="M21.8183 24.4467H8.04333C6.745 24.4467 5.66833 23.37 5.66833 22.0717C5.66833 20.7733 6.745 19.6967 8.04333 19.6967H21.8183C23.1167 19.6967 24.1933 20.7733 24.1933 22.0717C24.1933 23.37 23.1167 24.4467 21.8183 24.4467Z" fill="#fff"/>
  <path d="M21.8183 40.375H6.42834C5.13001 40.375 4.05334 39.2983 4.05334 38C4.05334 36.7017 5.13001 35.625 6.42834 35.625H21.8183C23.1167 35.625 24.1933 36.7017 24.1933 38C24.1933 39.2983 23.1167 40.375 21.8183 40.375Z" fill="#fff"/>
  <path d="M21.8183 56.1133H7.85333C6.555 56.1133 5.47833 55.0366 5.47833 53.7383C5.47833 52.4399 6.555 51.3633 7.85333 51.3633H21.8183C23.1167 51.3633 24.1933 52.4399 24.1933 53.7383C24.1933 55.0366 23.1167 56.1133 21.8183 56.1133Z" fill="#fff"/>
  <path d="M69.3183 24.4467H55.5433C54.245 24.4467 53.1683 23.37 53.1683 22.0717C53.1683 20.7733 54.245 19.6967 55.5433 19.6967H69.3183C70.6167 19.6967 71.6933 20.7733 71.6933 22.0717C71.6933 23.37 70.6167 24.4467 69.3183 24.4467Z" fill="#fff"/>
  <path d="M69.3183 40.375H53.9283C52.63 40.375 51.5533 39.2983 51.5533 38C51.5533 36.7017 52.63 35.625 53.9283 35.625H69.3183C70.6167 35.625 71.6933 36.7017 71.6933 38C71.6933 39.2983 70.6167 40.375 69.3183 40.375Z" fill="#fff"/>
  <path d="M53.7383 40.375H18.905C17.6067 40.375 16.53 39.2983 16.53 38C16.53 36.7017 17.6067 35.625 18.905 35.625H53.7383C55.0367 35.625 56.1133 36.7017 56.1133 38C56.1133 39.2983 55.0683 40.375 53.7383 40.375Z" fill="#fff"/>
  <path d="M69.3183 56.1133H55.3533C54.055 56.1133 52.9783 55.0366 52.9783 53.7383C52.9783 52.4399 54.055 51.3633 55.3533 51.3633H69.3183C70.6167 51.3633 71.6933 52.4399 71.6933 53.7383C71.6933 55.0366 70.6167 56.1133 69.3183 56.1133Z" fill="#fff"/>
</svg>