<svg xmlns="http://www.w3.org/2000/svg" width="243" height="243" viewBox="0 0 243 243" fill="none">
  <path d="M151.875 230.344H91.125C36.1463 230.344 12.6562 206.854 12.6562 151.875V91.125C12.6562 36.1463 36.1463 12.6562 91.125 12.6562H151.875C206.854 12.6562 230.344 36.1463 230.344 91.125V151.875C230.344 206.854 206.854 230.344 151.875 230.344ZM91.125 27.8438C44.4488 27.8438 27.8438 44.4488 27.8438 91.125V151.875C27.8438 198.551 44.4488 215.156 91.125 215.156H151.875C198.551 215.156 215.156 198.551 215.156 151.875V91.125C215.156 44.4488 198.551 27.8438 151.875 27.8438H91.125Z" fill="#fff" fill-opacity="0.08"/>
  <path d="M69.7612 225.079C65.61 225.079 62.1675 221.636 62.1675 217.485V25.515C62.1675 21.3638 65.61 17.9213 69.7612 17.9213C73.9125 17.9213 77.355 21.2625 77.355 25.515V217.485C77.355 221.738 73.9125 225.079 69.7612 225.079Z" fill="#fff" fill-opacity="0.08"/>
  <path d="M171.011 225.079C166.86 225.079 163.417 221.636 163.417 217.485V25.515C163.417 21.3638 166.86 17.9213 171.011 17.9213C175.162 17.9213 178.605 21.3638 178.605 25.515V217.485C178.605 221.738 175.162 225.079 171.011 225.079Z" fill="#fff" fill-opacity="0.08"/>
  <path d="M69.7613 78.165H25.7175C21.5663 78.165 18.1238 74.7225 18.1238 70.5713C18.1238 66.42 21.5663 62.9775 25.7175 62.9775H69.7613C73.9125 62.9775 77.355 66.42 77.355 70.5713C77.355 74.7225 73.9125 78.165 69.7613 78.165Z" fill="#fff" fill-opacity="0.08"/>
  <path d="M69.7612 129.094H20.5537C16.4025 129.094 12.96 125.651 12.96 121.5C12.96 117.349 16.4025 113.906 20.5537 113.906H69.7612C73.9125 113.906 77.355 117.349 77.355 121.5C77.355 125.651 73.9125 129.094 69.7612 129.094Z" fill="#fff" fill-opacity="0.08"/>
  <path d="M69.7614 179.415H25.1101C20.9589 179.415 17.5164 175.973 17.5164 171.821C17.5164 167.67 20.9589 164.228 25.1101 164.228H69.7614C73.9126 164.228 77.3551 167.67 77.3551 171.821C77.3551 175.973 73.9126 179.415 69.7614 179.415Z" fill="#fff" fill-opacity="0.08"/>
  <path d="M221.636 78.165H177.593C173.441 78.165 169.999 74.7225 169.999 70.5713C169.999 66.42 173.441 62.9775 177.593 62.9775H221.636C225.788 62.9775 229.23 66.42 229.23 70.5713C229.23 74.7225 225.788 78.165 221.636 78.165Z" fill="#fff" fill-opacity="0.08"/>
  <path d="M221.636 129.094H172.429C168.277 129.094 164.835 125.651 164.835 121.5C164.835 117.349 168.277 113.906 172.429 113.906H221.636C225.787 113.906 229.23 117.349 229.23 121.5C229.23 125.651 225.787 129.094 221.636 129.094Z" fill="#fff" fill-opacity="0.08"/>
  <path d="M171.821 129.094H60.4463C56.295 129.094 52.8525 125.651 52.8525 121.5C52.8525 117.349 56.295 113.906 60.4463 113.906H171.821C175.973 113.906 179.415 117.349 179.415 121.5C179.415 125.651 176.074 129.094 171.821 129.094Z" fill="#fff" fill-opacity="0.08"/>
  <path d="M221.636 179.415H176.985C172.834 179.415 169.391 175.973 169.391 171.821C169.391 167.67 172.834 164.228 176.985 164.228H221.636C225.788 164.228 229.23 167.67 229.23 171.821C229.23 175.973 225.788 179.415 221.636 179.415Z" fill="#fff" fill-opacity="0.08"/>
</svg>