<svg width="22" height="13" viewBox="0 0 22 13" fill="none" xmlns="http://www.w3.org/2000/svg">
<path d="M5.65485 12C5.1768 12 4.69875 11.8288 4.32134 11.462L0.547244 7.79376C-0.182415 7.08457 -0.182415 5.91074 0.547244 5.20155C1.2769 4.49236 2.48461 4.49236 3.21427 5.20155L5.70518 7.62258L12.5489 1.48441C13.3037 0.79967 14.5114 0.848579 15.2159 1.58223C15.9204 2.31587 15.8701 3.48971 15.1153 4.17444L6.93805 11.5109C6.5858 11.8288 6.13291 12 5.65485 12Z" fill="#FB653C"/>
<path d="M20.1635 4.54662L20.1656 4.54477C21.125 3.67438 21.1942 2.1766 20.2909 1.23591C19.4015 0.309703 17.886 0.245451 16.9284 1.11309C16.928 1.11342 16.9276 1.11375 16.9273 1.11408L10.4332 6.93864L8.27712 4.843C7.35341 3.94521 5.83682 3.94521 4.91311 4.843C3.98144 5.74854 3.98144 7.24677 4.91311 8.15231L8.68721 11.8205C9.16427 12.2842 9.77011 12.5 10.3692 12.5C10.9681 12.5 11.5408 12.2849 11.9868 11.8826C11.987 11.8825 11.9872 11.8823 11.9874 11.8821L20.1635 4.54661L20.1635 4.54662Z" fill="#FB653C" stroke="#1E1E22"/>
</svg>
