<svg xmlns="http://www.w3.org/2000/svg" width="30" height="30" viewBox="0 0 30 30" fill="none">
  <path d="M27.475 14.2621C27.05 7.01207 20.4625 1.42459 12.875 2.67459C7.64999 3.53709 3.4625 7.77456 2.65 12.9996C2.175 16.0246 2.80003 18.8871 4.16253 21.2496L3.05001 25.3871C2.80001 26.3246 3.66248 27.1746 4.58748 26.9121L8.6625 25.7871C10.5125 26.8746 12.675 27.4996 14.9875 27.4996C22.0375 27.4996 27.8875 21.2871 27.475 14.2621ZM21.1 19.6496C20.9875 19.8746 20.85 20.0871 20.675 20.2871C20.3625 20.6246 20.025 20.8746 19.65 21.0246C19.275 21.1871 18.8625 21.2621 18.425 21.2621C17.7875 21.2621 17.1 21.1121 16.3875 20.7996C15.6625 20.4871 14.95 20.0746 14.2375 19.5621C13.5125 19.0371 12.8375 18.4496 12.1875 17.8121C11.5375 17.1621 10.9625 16.4746 10.4375 15.762C9.92498 15.0496 9.5125 14.3371 9.2125 13.6246C8.9125 12.9121 8.76252 12.2246 8.76252 11.5746C8.76252 11.1496 8.83751 10.7371 8.98751 10.3621C9.13751 9.97458 9.37503 9.62458 9.71253 9.31208C10.1125 8.91208 10.55 8.72458 11.0125 8.72458C11.1875 8.72458 11.3625 8.76208 11.525 8.83708C11.6875 8.91208 11.8375 9.02458 11.95 9.18708L13.4 11.2371C13.5125 11.3996 13.6 11.5371 13.65 11.6746C13.7125 11.8121 13.7375 11.9371 13.7375 12.0621C13.7375 12.2121 13.6875 12.3621 13.6 12.5121C13.5125 12.6621 13.4 12.8121 13.25 12.9621L12.775 13.4621C12.7 13.5371 12.675 13.6121 12.675 13.7121C12.675 13.7621 12.6875 13.8121 12.7 13.8621C12.725 13.9121 12.7375 13.9496 12.75 13.9871C12.8625 14.1996 13.0625 14.4621 13.3375 14.7871C13.625 15.1121 13.925 15.4496 14.25 15.7746C14.5875 16.1121 14.9125 16.4121 15.25 16.6995C15.575 16.9746 15.85 17.1621 16.0625 17.2746C16.1 17.2871 16.1375 17.312 16.175 17.3245C16.225 17.3496 16.275 17.3496 16.3375 17.3496C16.45 17.3496 16.525 17.3121 16.6 17.2371L17.075 16.7621C17.2375 16.5996 17.3875 16.4871 17.525 16.4121C17.675 16.3246 17.8125 16.2746 17.975 16.2746C18.1 16.2746 18.225 16.2996 18.3625 16.3621C18.5 16.4246 18.65 16.4996 18.8 16.6121L20.875 18.0871C21.0375 18.1996 21.15 18.3371 21.225 18.4871C21.2875 18.6496 21.325 18.7996 21.325 18.9746C21.25 19.1871 21.2 19.4246 21.1 19.6496Z" fill="white"/>
</svg>