<svg id="Layer_1" data-name="Layer 1" xmlns="http://www.w3.org/2000/svg" xmlns:xlink="http://www.w3.org/1999/xlink" viewBox="0 0 84.51 84.55"><defs><style>.cls-1,.cls-2,.cls-4{fill:#fff;}.cls-1{clip-rule:evenodd;}.cls-2,.cls-46{fill-rule:evenodd;}.cls-3{clip-path:url(#clip-path);}.cls-5{clip-path:url(#clip-path-2);}.cls-6{clip-path:url(#clip-path-3);}.cls-7{clip-path:url(#clip-path-4);}.cls-8{clip-path:url(#clip-path-5);}.cls-9{clip-path:url(#clip-path-6);}.cls-10{clip-path:url(#clip-path-7);}.cls-11{clip-path:url(#clip-path-8);}.cls-12{clip-path:url(#clip-path-9);}.cls-13{clip-path:url(#clip-path-10);}.cls-14{clip-path:url(#clip-path-11);}.cls-15{clip-path:url(#clip-path-12);}.cls-16{clip-path:url(#clip-path-13);}.cls-17{clip-path:url(#clip-path-14);}.cls-18{clip-path:url(#clip-path-15);}.cls-19{clip-path:url(#clip-path-16);}.cls-20{clip-path:url(#clip-path-17);}.cls-21{clip-path:url(#clip-path-18);}.cls-22{clip-path:url(#clip-path-19);}.cls-23{clip-path:url(#clip-path-20);}.cls-24{clip-path:url(#clip-path-21);}.cls-25{clip-path:url(#clip-path-22);}.cls-26{clip-path:url(#clip-path-23);}.cls-27{clip-path:url(#clip-path-24);}.cls-28{clip-path:url(#clip-path-25);}.cls-29{clip-path:url(#clip-path-26);}.cls-30{clip-path:url(#clip-path-27);}.cls-31{clip-path:url(#clip-path-28);}.cls-32{clip-path:url(#clip-path-29);}.cls-33{clip-path:url(#clip-path-30);}.cls-34{clip-path:url(#clip-path-31);}.cls-35{clip-path:url(#clip-path-32);}.cls-36{clip-path:url(#clip-path-33);}.cls-37{clip-path:url(#clip-path-34);}.cls-38{clip-path:url(#clip-path-35);}.cls-39{clip-path:url(#clip-path-36);}.cls-40{clip-path:url(#clip-path-37);}.cls-41{clip-path:url(#clip-path-38);}.cls-42{clip-path:url(#clip-path-39);}.cls-43{clip-path:url(#clip-path-40);}.cls-44{clip-path:url(#clip-path-41);}.cls-45{clip-path:url(#clip-path-42);}.cls-46{fill:#f63;}</style><clipPath id="clip-path"><path class="cls-1" d="M51.48,13.61a3.9,3.9,0,0,1,2.22,1.2c.24.51-.41.78-1.47.58s-2.11-.8-2.27-1.33.53-.65,1.52-.45"/></clipPath><clipPath id="clip-path-2"><path class="cls-1" d="M59,16.39a17.41,17.41,0,0,1,1.87,1.32c.39.41.18.48-.55.11a6.15,6.15,0,0,1-2-1.45c-.35-.39,0-.36.65,0"/></clipPath><clipPath id="clip-path-3"><path class="cls-1" d="M53.05,18.77A3.58,3.58,0,0,1,56,21.2c.23,1.22-.78,2.1-2.27,1.93a3.36,3.36,0,0,1-3-2.6c-.14-1.18.93-2,2.38-1.76"/></clipPath><clipPath id="clip-path-4"><path class="cls-1" d="M62,21.05a4.53,4.53,0,0,1,2.28,2.3c.33,1-.16,1.57-1.15,1.27a3.78,3.78,0,0,1-2.4-2.42c-.29-1,.29-1.49,1.27-1.15"/></clipPath><clipPath id="clip-path-5"><path class="cls-1" d="M67.56,24.42a21.8,21.8,0,0,1,1.36,2c.41.74.44,1.05,0,.7A6.66,6.66,0,0,1,67.47,25c-.38-.76-.34-1,.09-.6"/></clipPath><clipPath id="clip-path-6"><path class="cls-1" d="M54.15,27.5a4.07,4.07,0,0,1,3.58,3.59,3,3,0,0,1-3.17,3.3,4,4,0,0,1-3.71-3.71,3,3,0,0,1,3.3-3.18"/></clipPath><clipPath id="clip-path-7"><path class="cls-1" d="M70.41,31.39a4.61,4.61,0,0,1,1.29,2.47c.22,1.08,0,1.85-.46,1.67S70,34.22,69.8,33s.06-1.9.61-1.64"/></clipPath><clipPath id="clip-path-8"><path class="cls-1" d="M65.07,39.41c1.4.06,2.5,1.6,2.52,3.42s-1.12,3.37-2.52,3.43-2.76-1.48-2.75-3.43,1.25-3.48,2.75-3.42"/></clipPath><clipPath id="clip-path-9"><path class="cls-1" d="M71.7,40.35c.56.08,1,1.17,1,2.48s-.44,2.41-1,2.48-1.21-1-1.2-2.48.55-2.54,1.2-2.48"/></clipPath><clipPath id="clip-path-10"><path class="cls-1" d="M41.39,11.51h1.77l-.91,0h-.86"/></clipPath><clipPath id="clip-path-11"><path class="cls-1" d="M40.11,13.66s0,.05,0,.08h0l0,0h0a1.75,1.75,0,0,0,1.3.73h0l.15,0h.79c1.19,0,2.07-.51,2-1.06h0v0h0v0h0v0c-.09-.32-.54-.58-1.16-.73h-.05l-.09,0H41.41l-.13,0h-.09c-.59.16-1,.42-1.08.73v0h0v0h0v0h0v0h0v0h0v0h0Z"/></clipPath><clipPath id="clip-path-12"><path class="cls-1" d="M33.07,13.6a4,4,0,0,0-2.22,1.19c-.24.52.42.79,1.47.59s2.11-.8,2.27-1.33-.52-.65-1.52-.45"/></clipPath><clipPath id="clip-path-13"><path class="cls-1" d="M25.54,16.36a16.45,16.45,0,0,0-1.87,1.32c-.39.41-.18.49.55.11a6,6,0,0,0,2-1.44c.32-.37,0-.36-.65,0"/></clipPath><clipPath id="clip-path-14"><path class="cls-1" d="M42.3,17.86h0c-1.7,0-3.13,1.05-3.19,2.36s1.35,2.53,3.12,2.55h.15c1.78,0,3.17-1.17,3.11-2.55S44,17.88,42.3,17.86"/></clipPath><clipPath id="clip-path-15"><path class="cls-1" d="M31.5,18.76a3.59,3.59,0,0,0-2.95,2.42c-.22,1.22.78,2.11,2.28,1.94a3.36,3.36,0,0,0,3.05-2.59c.14-1.19-.93-2-2.38-1.77"/></clipPath><clipPath id="clip-path-16"><path class="cls-1" d="M22.53,21a4.51,4.51,0,0,0-2.28,2.29c-.34,1,.15,1.58,1.14,1.28a3.77,3.77,0,0,0,2.4-2.41c.3-1-.28-1.5-1.26-1.16"/></clipPath><clipPath id="clip-path-17"><path class="cls-1" d="M17,24.39a21.64,21.64,0,0,0-1.39,2c-.39.72-.41,1,0,.68A6.63,6.63,0,0,0,17.07,25c.38-.75.31-1-.09-.59"/></clipPath><clipPath id="clip-path-18"><path class="cls-1" d="M42.28,26.67h0a4.11,4.11,0,0,0-4.19,3.87,4.05,4.05,0,0,0,4.18,4h0a4.06,4.06,0,0,0,4.19-4,4.11,4.11,0,0,0-4.19-3.88"/></clipPath><clipPath id="clip-path-19"><path class="cls-1" d="M30.39,27.5a4,4,0,0,0-3.58,3.58A3,3,0,0,0,30,34.37a3.92,3.92,0,0,0,3.71-3.7,3,3,0,0,0-3.3-3.17"/></clipPath><clipPath id="clip-path-20"><path class="cls-1" d="M20.45,29.11a3.81,3.81,0,0,0-2.53,3.1c-.19,1.49.6,2.61,1.83,2.47a3.45,3.45,0,0,0,2.68-3.16c.19-1.57-.72-2.64-2-2.41"/></clipPath><clipPath id="clip-path-21"><path class="cls-1" d="M14.11,31.38a4.45,4.45,0,0,0-1.28,2.43c-.23,1.12-.05,1.89.45,1.7A3.4,3.4,0,0,0,14.73,33c.23-1.17-.06-1.9-.62-1.61"/></clipPath><clipPath id="clip-path-22"><path class="cls-1" d="M19.46,39.37c-1.4.09-2.51,1.62-2.53,3.45s1.13,3.39,2.53,3.47,2.76-1.48,2.74-3.47-1.24-3.5-2.74-3.45"/></clipPath><clipPath id="clip-path-23"><path class="cls-1" d="M12.82,40.31c-.56.07-1,1.2-1,2.51s.44,2.47,1,2.54S14,44.29,14,42.82s-.54-2.57-1.19-2.51"/></clipPath><clipPath id="clip-path-24"><path class="cls-1" d="M51.48,72.06a3.9,3.9,0,0,0,2.22-1.2c.24-.51-.41-.79-1.47-.58s-2.11.79-2.27,1.33.53.65,1.52.45"/></clipPath><clipPath id="clip-path-25"><path class="cls-1" d="M59,69.28A17.41,17.41,0,0,0,60.88,68c.39-.41.18-.49-.55-.11a6.28,6.28,0,0,0-2,1.44c-.35.39,0,.37.65,0"/></clipPath><clipPath id="clip-path-26"><path class="cls-1" d="M53.05,66.9A3.6,3.6,0,0,0,56,64.47c.23-1.22-.78-2.11-2.27-1.93a3.35,3.35,0,0,0-3,2.59c-.14,1.19.93,2,2.38,1.77"/></clipPath><clipPath id="clip-path-27"><path class="cls-1" d="M62,64.62a4.56,4.56,0,0,0,2.28-2.3c.33-1-.16-1.57-1.15-1.27a3.78,3.78,0,0,0-2.4,2.42c-.29,1,.29,1.49,1.27,1.15"/></clipPath><clipPath id="clip-path-28"><path class="cls-1" d="M67.56,61.24a20.23,20.23,0,0,0,1.36-2c.41-.74.44-1,0-.7a6.55,6.55,0,0,0-1.5,2.09c-.38.75-.34,1,.09.59"/></clipPath><clipPath id="clip-path-29"><path class="cls-1" d="M54.15,58.16a4.05,4.05,0,0,0,3.58-3.59,3,3,0,0,0-3.17-3.3A4,4,0,0,0,50.85,55a3,3,0,0,0,3.3,3.17"/></clipPath><clipPath id="clip-path-30"><path class="cls-1" d="M64.09,56.53a3.77,3.77,0,0,0,2.51-3.08c.2-1.52-.59-2.64-1.81-2.49a3.49,3.49,0,0,0-2.7,3.18c-.17,1.55.74,2.62,2,2.39"/></clipPath><clipPath id="clip-path-31"><path class="cls-1" d="M70.41,54.28a4.65,4.65,0,0,0,1.29-2.47c.22-1.09,0-1.86-.46-1.67s-1.24,1.3-1.44,2.5.06,1.9.61,1.64"/></clipPath><clipPath id="clip-path-32"><path class="cls-1" d="M40.12,72a.43.43,0,0,1,0,0h0c.16-.43.85-.77,1.75-.84h.51c1.22,0,2.13.49,2.06,1.06h0v0h0v0c-.07.33-.53.61-1.16.75h0l-.14,0H41.61l-.15,0h0c-.71-.13-1.25-.41-1.34-.76v0h0v0h0v0h0v0h0v0h0v0h0v0h0v0h0Z"/></clipPath><clipPath id="clip-path-33"><path class="cls-1" d="M33.07,72.07a3.9,3.9,0,0,1-2.22-1.2c-.24-.51.42-.78,1.47-.58s2.11.8,2.27,1.33-.52.65-1.52.45"/></clipPath><clipPath id="clip-path-34"><path class="cls-1" d="M25.54,69.3A16.49,16.49,0,0,1,23.67,68c-.39-.41-.18-.49.55-.12a6.15,6.15,0,0,1,2,1.45c.32.37,0,.36-.65,0"/></clipPath><clipPath id="clip-path-35"><path class="cls-1" d="M42.3,67.81h0c-1.7,0-3.13-1-3.19-2.36s1.35-2.54,3.12-2.55h.15c1.78,0,3.17,1.16,3.11,2.55S44,67.79,42.3,67.81"/></clipPath><clipPath id="clip-path-36"><path class="cls-1" d="M31.5,66.91a3.6,3.6,0,0,1-2.95-2.43c-.22-1.22.78-2.1,2.28-1.93a3.36,3.36,0,0,1,3.05,2.59c.14,1.18-.93,2-2.38,1.77"/></clipPath><clipPath id="clip-path-37"><path class="cls-1" d="M22.53,64.64a4.47,4.47,0,0,1-2.28-2.29c-.34-1,.15-1.57,1.14-1.27a3.77,3.77,0,0,1,2.4,2.41c.3,1-.28,1.5-1.26,1.15"/></clipPath><clipPath id="clip-path-38"><path class="cls-1" d="M17,61.28a20.62,20.62,0,0,1-1.39-2c-.39-.71-.41-1,0-.67a6.7,6.7,0,0,1,1.51,2.08c.38.76.31,1-.09.6"/></clipPath><clipPath id="clip-path-39"><path class="cls-1" d="M30.39,58.17a4,4,0,0,1-3.58-3.58A3,3,0,0,1,30,51.29,3.93,3.93,0,0,1,33.69,55a3,3,0,0,1-3.3,3.17"/></clipPath><clipPath id="clip-path-40"><path class="cls-1" d="M20.45,56.55a3.8,3.8,0,0,1-2.53-3.1c-.19-1.48.6-2.61,1.83-2.46a3.44,3.44,0,0,1,2.68,3.15c.19,1.57-.72,2.64-2,2.41"/></clipPath><clipPath id="clip-path-41"><path class="cls-1" d="M14.11,54.29a4.45,4.45,0,0,1-1.28-2.43c-.23-1.12-.05-1.89.45-1.7s1.25,1.3,1.45,2.52-.06,1.9-.62,1.61"/></clipPath><clipPath id="clip-path-42"><path class="cls-1" d="M42.26,37.8a5,5,0,1,1-5,5,5,5,0,0,1,5-5"/></clipPath></defs><path class="cls-2" d="M51.48,13.61a3.9,3.9,0,0,1,2.22,1.2c.24.51-.41.78-1.47.58s-2.11-.8-2.27-1.33.53-.65,1.52-.45"/><g class="cls-3"><rect class="cls-4" x="49.78" y="13.41" width="4.17" height="2.19"/></g><path class="cls-2" d="M59,16.39a17.41,17.41,0,0,1,1.87,1.32c.39.41.18.48-.55.11a6.15,6.15,0,0,1-2-1.45c-.35-.39,0-.36.65,0"/><g class="cls-5"><rect class="cls-4" x="58.01" y="15.98" width="3.26" height="2.21"/></g><path class="cls-2" d="M53.05,18.77A3.58,3.58,0,0,1,56,21.2c.23,1.22-.78,2.1-2.27,1.93a3.36,3.36,0,0,1-3-2.6c-.14-1.18.93-2,2.38-1.76"/><g class="cls-6"><rect class="cls-4" x="50.53" y="18.58" width="5.69" height="4.72"/></g><path class="cls-2" d="M62,21.05a4.53,4.53,0,0,1,2.28,2.3c.33,1-.16,1.57-1.15,1.27a3.78,3.78,0,0,1-2.4-2.42c-.29-1,.29-1.49,1.27-1.15"/><g class="cls-7"><rect class="cls-4" x="60.46" y="20.71" width="4.17" height="4.21"/></g><path class="cls-2" d="M67.56,24.42a21.8,21.8,0,0,1,1.36,2c.41.74.44,1.05,0,.7A6.66,6.66,0,0,1,67.47,25c-.38-.76-.34-1,.09-.6"/><g class="cls-8"><rect class="cls-4" x="67.09" y="24" width="2.27" height="3.46"/></g><path class="cls-2" d="M54.15,27.5a4.07,4.07,0,0,1,3.58,3.59,3,3,0,0,1-3.17,3.3,4,4,0,0,1-3.71-3.71,3,3,0,0,1,3.3-3.18"/><g class="cls-9"><rect class="cls-4" x="50.77" y="27.38" width="7.09" height="7.1"/></g><path class="cls-2" d="M70.41,31.39a4.61,4.61,0,0,1,1.29,2.47c.22,1.08,0,1.85-.46,1.67S70,34.22,69.8,33s.06-1.9.61-1.64"/><g class="cls-10"><rect class="cls-4" x="69.56" y="31.13" width="2.35" height="4.59"/></g><path class="cls-2" d="M65.07,39.41c1.4.06,2.5,1.6,2.52,3.42s-1.12,3.37-2.52,3.43-2.76-1.48-2.75-3.43,1.25-3.48,2.75-3.42"/><g class="cls-11"><rect class="cls-4" x="62.31" y="39.35" width="5.28" height="6.97"/></g><path class="cls-2" d="M71.7,40.35c.56.08,1,1.17,1,2.48s-.44,2.41-1,2.48-1.21-1-1.2-2.48.55-2.54,1.2-2.48"/><g class="cls-12"><rect class="cls-4" x="70.49" y="40.29" width="2.21" height="5.08"/></g><path class="cls-2" d="M41.39,11.51h1.77l-.91,0h-.86"/><g class="cls-13"><rect class="cls-4" x="41.39" y="11.5" width="1.77" height="0.01"/></g><path class="cls-2" d="M40.11,13.66s0,.05,0,.08h0l0,0h0a1.75,1.75,0,0,0,1.3.73h0l.15,0h.79c1.19,0,2.07-.51,2-1.06h0v0h0v0h0v0c-.09-.32-.54-.58-1.16-.73h-.05l-.09,0H41.41l-.13,0h-.09c-.59.16-1,.42-1.08.73v0h0v0h0v0h0v0h0v0h0v0h0Z"/><g class="cls-14"><rect class="cls-4" x="40.1" y="12.62" width="4.42" height="1.97"/></g><path class="cls-2" d="M33.07,13.6a4,4,0,0,0-2.22,1.19c-.24.52.42.79,1.47.59s2.11-.8,2.27-1.33-.52-.65-1.52-.45"/><g class="cls-15"><rect class="cls-4" x="30.61" y="13.4" width="4.17" height="2.18"/></g><path class="cls-2" d="M25.54,16.36a16.45,16.45,0,0,0-1.87,1.32c-.39.41-.18.49.55.11a6,6,0,0,0,2-1.44c.32-.37,0-.36-.65,0"/><g class="cls-16"><rect class="cls-4" x="23.28" y="15.98" width="3.23" height="2.19"/></g><path class="cls-2" d="M42.3,17.86h0c-1.7,0-3.13,1.05-3.19,2.36s1.35,2.53,3.12,2.55h.15c1.78,0,3.17-1.17,3.11-2.55S44,17.88,42.3,17.86"/><g class="cls-17"><rect class="cls-4" x="39.02" y="17.86" width="6.5" height="4.91"/></g><path class="cls-2" d="M31.5,18.76a3.59,3.59,0,0,0-2.95,2.42c-.22,1.22.78,2.11,2.28,1.94a3.36,3.36,0,0,0,3.05-2.59c.14-1.19-.93-2-2.38-1.77"/><g class="cls-18"><rect class="cls-4" x="28.33" y="18.57" width="5.69" height="4.72"/></g><path class="cls-2" d="M22.53,21a4.51,4.51,0,0,0-2.28,2.29c-.34,1,.15,1.58,1.14,1.28a3.77,3.77,0,0,0,2.4-2.41c.3-1-.28-1.5-1.26-1.16"/><g class="cls-19"><rect class="cls-4" x="19.91" y="20.68" width="4.17" height="4.21"/></g><path class="cls-2" d="M17,24.39a21.64,21.64,0,0,0-1.39,2c-.39.72-.41,1,0,.68A6.63,6.63,0,0,0,17.07,25c.38-.75.31-1-.09-.59"/><g class="cls-20"><rect class="cls-4" x="15.18" y="23.98" width="2.27" height="3.43"/></g><path class="cls-2" d="M42.28,26.67h0a4.11,4.11,0,0,0-4.19,3.87,4.05,4.05,0,0,0,4.18,4h0a4.06,4.06,0,0,0,4.19-4,4.11,4.11,0,0,0-4.19-3.88"/><g class="cls-21"><rect class="cls-4" x="38.04" y="26.67" width="8.47" height="7.91"/></g><path class="cls-2" d="M30.39,27.5a4,4,0,0,0-3.58,3.58A3,3,0,0,0,30,34.37a3.92,3.92,0,0,0,3.71-3.7,3,3,0,0,0-3.3-3.17"/><g class="cls-22"><rect class="cls-4" x="26.68" y="27.36" width="7.1" height="7.1"/></g><path class="cls-2" d="M20.45,29.11a3.81,3.81,0,0,0-2.53,3.1c-.19,1.49.6,2.61,1.83,2.47a3.45,3.45,0,0,0,2.68-3.16c.19-1.57-.72-2.64-2-2.41"/><g class="cls-23"><rect class="cls-4" x="17.73" y="28.88" width="4.89" height="5.94"/></g><path class="cls-2" d="M14.11,31.38a4.45,4.45,0,0,0-1.28,2.43c-.23,1.12-.05,1.89.45,1.7A3.4,3.4,0,0,0,14.73,33c.23-1.17-.06-1.9-.62-1.61"/><g class="cls-24"><rect class="cls-4" x="12.6" y="31.09" width="2.36" height="4.61"/></g><path class="cls-2" d="M19.46,39.37c-1.4.09-2.51,1.62-2.53,3.45s1.13,3.39,2.53,3.47,2.76-1.48,2.74-3.47-1.24-3.5-2.74-3.45"/><g class="cls-25"><rect class="cls-4" x="16.93" y="39.32" width="5.29" height="7.03"/></g><path class="cls-2" d="M12.82,40.31c-.56.07-1,1.2-1,2.51s.44,2.47,1,2.54S14,44.29,14,42.82s-.54-2.57-1.19-2.51"/><g class="cls-26"><rect class="cls-4" x="11.82" y="40.25" width="2.22" height="5.17"/></g><path class="cls-2" d="M51.48,72.06a3.9,3.9,0,0,0,2.22-1.2c.24-.51-.41-.79-1.47-.58s-2.11.79-2.27,1.33.53.65,1.52.45"/><g class="cls-27"><rect class="cls-4" x="49.78" y="70.07" width="4.17" height="2.19"/></g><path class="cls-2" d="M59,69.28A17.41,17.41,0,0,0,60.88,68c.39-.41.18-.49-.55-.11a6.28,6.28,0,0,0-2,1.44c-.35.39,0,.37.65,0"/><g class="cls-28"><rect class="cls-4" x="58.01" y="67.47" width="3.26" height="2.21"/></g><path class="cls-2" d="M53.05,66.9A3.6,3.6,0,0,0,56,64.47c.23-1.22-.78-2.11-2.27-1.93a3.35,3.35,0,0,0-3,2.59c-.14,1.19.93,2,2.38,1.77"/><g class="cls-29"><rect class="cls-4" x="50.53" y="62.36" width="5.69" height="4.72"/></g><path class="cls-2" d="M62,64.62a4.56,4.56,0,0,0,2.28-2.3c.33-1-.16-1.57-1.15-1.27a3.78,3.78,0,0,0-2.4,2.42c-.29,1,.29,1.49,1.27,1.15"/><g class="cls-30"><rect class="cls-4" x="60.46" y="60.75" width="4.17" height="4.21"/></g><path class="cls-2" d="M67.56,61.24a20.23,20.23,0,0,0,1.36-2c.41-.74.44-1,0-.7a6.55,6.55,0,0,0-1.5,2.09c-.38.75-.34,1,.09.59"/><g class="cls-31"><rect class="cls-4" x="67.09" y="58.21" width="2.27" height="3.46"/></g><path class="cls-2" d="M54.15,58.16a4.05,4.05,0,0,0,3.58-3.59,3,3,0,0,0-3.17-3.3A4,4,0,0,0,50.85,55a3,3,0,0,0,3.3,3.17"/><g class="cls-32"><rect class="cls-4" x="50.77" y="51.19" width="7.09" height="7.1"/></g><path class="cls-2" d="M64.09,56.53a3.77,3.77,0,0,0,2.51-3.08c.2-1.52-.59-2.64-1.81-2.49a3.49,3.49,0,0,0-2.7,3.18c-.17,1.55.74,2.62,2,2.39"/><g class="cls-33"><rect class="cls-4" x="61.92" y="50.81" width="4.88" height="5.95"/></g><path class="cls-2" d="M70.41,54.28a4.65,4.65,0,0,0,1.29-2.47c.22-1.09,0-1.86-.46-1.67s-1.24,1.3-1.44,2.5.06,1.9.61,1.64"/><g class="cls-34"><rect class="cls-4" x="69.56" y="49.95" width="2.35" height="4.59"/></g><path class="cls-2" d="M40.12,72a.43.43,0,0,1,0,0h0c.16-.43.85-.77,1.75-.84h.51c1.22,0,2.13.49,2.06,1.06h0v0h0v0c-.07.33-.53.61-1.16.75h0l-.14,0H41.61l-.15,0h0c-.71-.13-1.25-.41-1.34-.76v0h0v0h0v0h0v0h0v0h0v0h0v0h0v0h0Z"/><g class="cls-35"><rect class="cls-4" x="40.1" y="71.08" width="4.42" height="1.97"/></g><path class="cls-2" d="M33.07,72.07a3.9,3.9,0,0,1-2.22-1.2c-.24-.51.42-.78,1.47-.58s2.11.8,2.27,1.33-.52.65-1.52.45"/><g class="cls-36"><rect class="cls-4" x="30.61" y="70.09" width="4.17" height="2.18"/></g><path class="cls-2" d="M25.54,69.3A16.49,16.49,0,0,1,23.67,68c-.39-.41-.18-.49.55-.12a6.15,6.15,0,0,1,2,1.45c.32.37,0,.36-.65,0"/><g class="cls-37"><rect class="cls-4" x="23.28" y="67.5" width="3.23" height="2.19"/></g><path class="cls-2" d="M42.3,67.81h0c-1.7,0-3.13-1-3.19-2.36s1.35-2.54,3.12-2.55h.15c1.78,0,3.17,1.16,3.11,2.55S44,67.79,42.3,67.81"/><g class="cls-38"><rect class="cls-4" x="39.02" y="62.9" width="6.5" height="4.91"/></g><path class="cls-2" d="M31.5,66.91a3.6,3.6,0,0,1-2.95-2.43c-.22-1.22.78-2.1,2.28-1.93a3.36,3.36,0,0,1,3.05,2.59c.14,1.18-.93,2-2.38,1.77"/><g class="cls-39"><rect class="cls-4" x="28.33" y="62.38" width="5.69" height="4.72"/></g><path class="cls-2" d="M22.53,64.64a4.47,4.47,0,0,1-2.28-2.29c-.34-1,.15-1.57,1.14-1.27a3.77,3.77,0,0,1,2.4,2.41c.3,1-.28,1.5-1.26,1.15"/><g class="cls-40"><rect class="cls-4" x="19.91" y="60.78" width="4.17" height="4.21"/></g><path class="cls-2" d="M17,61.28a20.62,20.62,0,0,1-1.39-2c-.39-.71-.41-1,0-.67a6.7,6.7,0,0,1,1.51,2.08c.38.76.31,1-.09.6"/><g class="cls-41"><rect class="cls-4" x="15.18" y="58.25" width="2.27" height="3.43"/></g><path class="cls-2" d="M30.39,58.17a4,4,0,0,1-3.58-3.58A3,3,0,0,1,30,51.29,3.93,3.93,0,0,1,33.69,55a3,3,0,0,1-3.3,3.17"/><g class="cls-42"><rect class="cls-4" x="26.68" y="51.21" width="7.1" height="7.1"/></g><path class="cls-2" d="M20.45,56.55a3.8,3.8,0,0,1-2.53-3.1c-.19-1.48.6-2.61,1.83-2.46a3.44,3.44,0,0,1,2.68,3.15c.19,1.57-.72,2.64-2,2.41"/><g class="cls-43"><rect class="cls-4" x="17.73" y="50.84" width="4.89" height="5.94"/></g><path class="cls-2" d="M14.11,54.29a4.45,4.45,0,0,1-1.28-2.43c-.23-1.12-.05-1.89.45-1.7s1.25,1.3,1.45,2.52-.06,1.9-.62,1.61"/><g class="cls-44"><rect class="cls-4" x="12.6" y="49.97" width="2.36" height="4.61"/></g><path class="cls-2" d="M42.26,37.8a5,5,0,1,1-5,5,5,5,0,0,1,5-5"/><g class="cls-45"><rect class="cls-4" x="37.22" y="37.8" width="10.07" height="10.07"/></g><path class="cls-46" d="M62.45,35.61l-3.29,3.68a2.67,2.67,0,0,0-.62,2.48,4.16,4.16,0,0,1,.13,1.06,4.24,4.24,0,0,1-4,4.32,4.34,4.34,0,0,1-1-.1,2.77,2.77,0,0,0-2.66.76l-3.88,3.84a2.81,2.81,0,0,0-.79,2.63,3.33,3.33,0,0,1,.08.84A4.11,4.11,0,0,1,42.28,59h0a4.11,4.11,0,0,1-4.19-3.88,3.86,3.86,0,0,1,.08-.84,2.83,2.83,0,0,0-.79-2.63l-3.88-3.84a2.8,2.8,0,0,0-2.67-.75,3.85,3.85,0,0,1-1,.1,4.34,4.34,0,0,1,0-8.65A4.34,4.34,0,0,1,34,43.62a2.8,2.8,0,0,0,.81,2.52L39,50.36a2.8,2.8,0,0,0,2.5.79,4.52,4.52,0,0,1,.74-.06h0a4.56,4.56,0,0,1,.75.06,2.77,2.77,0,0,0,2.49-.79l4.25-4.21a2.78,2.78,0,0,0,.81-2.53,4.08,4.08,0,0,1-.06-.79,4.19,4.19,0,0,1,4.16-4.31,5.42,5.42,0,0,1,.58.06,2.67,2.67,0,0,0,2.52-.87l3.63-4.06a2.66,2.66,0,0,0,.69-2.11h0c-.17-1.55.74-2.62,2-2.39a3.76,3.76,0,0,1,2.51,3.08c.2,1.51-.59,2.64-1.81,2.49h0a2.64,2.64,0,0,0-2.33.9"/></svg>